P3
50 50
255
40 60 80
45 60 83
50 60 86
55 60 89
60 60 92
65 60 95
70 60 98
75 60 101
80 60 104
85 60 107
90 60 110
95 60 113
100 60 116
105 60 119
110 60 122
115 60 125
120 60 128
125 60 131
130 60 134
135 60 137
140 60 140
145 60 143
150 60 146
155 60 149
160 60 152
165 60 155
170 60 158
175 60 161
180 60 164
185 60 167
190 60 170
195 60 173
200 60 176
205 60 179
210 60 182
215 60 185
220 60 188
225 60 191
230 60 194
235 60 197
240 60 200
245 60 203
250 60 206
255 60 209
4 60 212
9 60 215
14 60 218
19 60 221
24 60 224
29 60 227
40 65 83
45 65 86
50 65 89
55 65 92
60 65 95
65 65 98
70 65 101
75 65 104
80 65 107
85 65 110
90 65 113
95 65 116
100 65 119
105 65 122
110 65 125
115 65 128
120 65 131
125 65 134
130 65 137
135 65 140
140 65 143
145 65 146
150 65 149
155 65 152
160 65 155
165 65 158
170 65 161
175 65 164
180 65 167
185 65 170
190 65 173
195 65 176
200 65 179
205 65 182
210 65 185
215 65 188
220 65 191
225 65 194
230 65 197
235 65 200
240 65 203
245 65 206
250 65 209
255 65 212
4 65 215
9 65 218
14 65 221
19 65 224
24 65 227
29 65 230
40 70 86
45 70 89
50 70 92
55 70 95
60 70 98
65 70 101
70 70 104
75 70 107
80 70 110
85 70 113
90 70 116
95 70 119
100 70 122
105 70 125
110 70 128
115 70 131
120 70 134
125 70 137
130 70 140
135 70 143
140 70 146
145 70 149
150 70 152
155 70 155
160 70 158
165 70 161
170 70 164
175 70 167
180 70 170
185 70 173
190 70 176
195 70 179
200 70 182
205 70 185
210 70 188
215 70 191
220 70 194
225 70 197
230 70 200
235 70 203
240 70 206
245 70 209
250 70 212
255 70 215
4 70 218
9 70 221
14 70 224
19 70 227
24 70 230
29 70 233
40 75 89
45 75 92
50 75 95
55 75 98
60 75 101
65 75 104
70 75 107
75 75 110
80 75 113
85 75 116
90 75 119
95 75 122
100 75 125
105 75 128
110 75 131
115 75 134
120 75 137
125 75 140
130 75 143
135 75 146
140 75 149
145 75 152
150 75 155
155 75 158
160 75 161
165 75 164
170 75 167
175 75 170
180 75 173
185 75 176
190 75 179
195 75 182
200 75 185
205 75 188
210 75 191
215 75 194
220 75 197
225 75 200
230 75 203
235 75 206
240 75 209
245 75 212
250 75 215
255 75 218
4 75 221
9 75 224
14 75 227
19 75 230
24 75 233
29 75 236
40 80 92
45 80 95
50 80 98
55 80 101
60 80 104
65 80 107
70 80 110
75 80 113
80 80 116
85 80 119
90 80 122
95 80 125
100 80 128
105 80 131
110 80 134
115 80 137
120 80 140
125 80 143
130 80 146
135 80 149
140 80 152
145 80 155
150 80 158
155 80 161
160 80 164
165 80 167
170 80 170
175 80 173
180 80 176
185 80 179
190 80 182
195 80 185
200 80 188
205 80 191
210 80 194
215 80 197
220 80 200
225 80 203
230 80 206
235 80 209
240 80 212
245 80 215
250 80 218
255 80 221
4 80 224
9 80 227
14 80 230
19 80 233
24 80 236
29 80 239
40 85 95
45 85 98
50 85 101
55 85 104
60 85 107
65 85 110
70 85 113
75 85 116
80 85 119
85 85 122
90 85 125
95 85 128
100 85 131
105 85 134
110 85 137
115 85 140
120 85 143
125 85 146
130 85 149
135 85 152
140 85 155
145 85 158
150 85 161
155 85 164
160 85 167
165 85 170
170 85 173
175 85 176
180 85 179
185 85 182
190 85 185
195 85 188
200 85 191
205 85 194
210 85 197
215 85 200
220 85 203
225 85 206
230 85 209
235 85 212
240 85 215
245 85 218
250 85 221
255 85 224
4 85 227
9 85 230
14 85 233
19 85 236
24 85 239
29 85 242
40 90 98
45 90 101
50 90 104
55 90 107
60 90 110
65 90 113
70 90 116
75 90 119
80 90 122
85 90 125
90 90 128
95 90 131
100 90 134
105 90 137
110 90 140
115 90 143
120 90 146
125 90 149
130 90 152
135 90 155
140 90 158
145 90 161
150 90 164
155 90 167
160 90 170
165 90 173
170 90 176
175 90 179
180 90 182
185 90 185
190 90 188
195 90 191
200 90 194
205 90 197
210 90 200
215 90 203
220 90 206
225 90 209
230 90 212
235 90 215
240 90 218
245 90 221
250 90 224
255 90 227
4 90 230
9 90 233
14 90 236
19 90 239
24 90 242
29 90 245
40 95 101
45 95 104
50 95 107
55 95 110
60 95 113
65 95 116
70 95 119
75 95 122
80 95 125
85 95 128
90 95 131
95 95 134
100 95 137
105 95 140
110 95 143
115 95 146
120 95 149
125 95 152
130 95 155
135 95 158
140 95 161
145 95 164
150 95 167
155 95 170
160 95 173
165 95 176
170 95 179
175 95 182
180 95 185
185 95 188
190 95 191
195 95 194
200 95 197
205 95 200
210 95 203
215 95 206
220 95 209
225 95 212
230 95 215
235 95 218
240 95 221
245 95 224
250 95 227
255 95 230
4 95 233
9 95 236
14 95 239
19 95 242
24 95 245
29 95 248
40 100 104
45 100 107
50 100 110
55 100 113
60 100 116
65 100 119
70 100 122
75 100 125
80 100 128
85 100 131
90 100 134
95 100 137
100 100 140
105 100 143
110 100 146
115 100 149
120 100 152
125 100 155
130 100 158
135 100 161
140 100 164
145 100 167
150 100 170
155 100 173
160 100 176
165 100 179
170 100 182
175 100 185
180 100 188
185 100 191
190 100 194
195 100 197
200 100 200
205 100 203
210 100 206
215 100 209
220 100 212
225 100 215
230 100 218
235 100 221
240 100 224
245 100 227
250 100 230
255 100 233
4 100 236
9 100 239
14 100 242
19 100 245
24 100 248
29 100 251
40 105 107
45 105 110
50 105 113
55 105 116
60 105 119
65 105 122
70 105 125
75 105 128
80 105 131
85 105 134
90 105 137
95 105 140
100 105 143
105 105 146
110 105 149
115 105 152
120 105 155
125 105 158
130 105 161
135 105 164
140 105 167
145 105 170
150 105 173
155 105 176
160 105 179
165 105 182
170 105 185
175 105 188
180 105 191
185 105 194
190 105 197
195 105 200
200 105 203
205 105 206
210 105 209
215 105 212
220 105 215
225 105 218
230 105 221
235 105 224
240 105 227
245 105 230
250 105 233
255 105 236
4 105 239
9 105 242
14 105 245
19 105 248
24 105 251
29 105 254
40 110 110
45 110 113
50 110 116
55 110 119
60 110 122
65 110 125
70 110 128
75 110 131
80 110 134
85 110 137
90 110 140
95 110 143
100 110 146
105 110 149
110 110 152
115 110 155
120 110 158
125 110 161
130 110 164
135 110 167
140 110 170
145 110 173
150 110 176
155 110 179
160 110 182
165 110 185
170 110 188
175 110 191
180 110 194
185 110 197
190 110 200
195 110 203
200 110 206
205 110 209
210 110 212
215 110 215
220 110 218
225 110 221
230 110 224
235 110 227
240 110 230
245 110 233
250 110 236
255 110 239
4 110 242
9 110 245
14 110 248
19 110 251
24 110 254
29 110 1
40 115 113
45 115 116
50 115 119
55 115 122
60 115 125
65 115 128
70 115 131
75 115 134
80 115 137
85 115 140
90 115 143
95 115 146
100 115 149
105 115 152
110 115 155
115 115 158
120 115 161
125 115 164
130 115 167
135 115 170
140 115 173
145 115 176
150 115 179
155 115 182
160 115 185
165 115 188
170 115 191
175 115 194
180 115 197
185 115 200
190 115 203
195 115 206
200 115 209
205 115 212
210 115 215
215 115 218
220 115 221
225 115 224
230 115 227
235 115 230
240 115 233
245 115 236
250 115 239
255 115 242
4 115 245
9 115 248
14 115 251
19 115 254
24 115 1
29 115 4
40 120 116
45 120 119
50 120 122
55 120 125
60 120 128
65 120 131
70 120 134
75 120 137
80 120 140
85 120 143
90 120 146
95 120 149
100 120 152
105 120 155
110 120 158
115 120 161
120 120 164
125 120 167
130 120 170
135 120 173
140 120 176
145 120 179
150 120 182
155 120 185
160 120 188
165 120 191
170 120 194
175 120 197
180 120 200
185 120 203
190 120 206
195 120 209
200 120 212
205 120 215
210 120 218
215 120 221
220 120 224
225 120 227
230 120 230
235 120 233
240 120 236
245 120 239
250 120 242
255 120 245
4 120 248
9 120 251
14 120 254
19 120 1
24 120 4
29 120 7
40 125 119
45 125 122
50 125 125
55 125 128
60 125 131
65 125 134
70 125 137
75 125 140
80 125 143
85 125 146
90 125 149
95 125 152
100 125 155
105 125 158
110 125 161
115 125 164
120 125 167
125 125 170
130 125 173
135 125 176
140 125 179
145 125 182
150 125 185
155 125 188
160 125 191
165 125 194
170 125 197
175 125 200
180 125 203
185 125 206
190 125 209
195 125 212
200 125 215
205 125 218
210 125 221
215 125 224
220 125 227
225 125 230
230 125 233
235 125 236
240 125 239
245 125 242
250 125 245
255 125 248
4 125 251
9 125 254
14 125 1
19 125 4
24 125 7
29 125 10
40 130 122
45 130 125
50 130 128
55 130 131
60 130 134
65 130 137
70 130 140
75 130 143
80 130 146
85 130 149
90 130 152
95 130 155
100 130 158
105 130 161
110 130 164
115 130 167
120 130 170
125 130 173
130 130 176
135 130 179
140 130 182
145 130 185
150 130 188
155 130 191
160 130 194
165 130 197
170 130 200
175 130 203
180 130 206
185 130 209
190 130 212
195 130 215
200 130 218
205 130 221
210 130 224
215 130 227
220 130 230
225 130 233
230 130 236
235 130 239
240 130 242
245 130 245
250 130 248
255 130 251
4 130 254
9 130 1
14 130 4
19 130 7
24 130 10
29 130 13
40 135 125
45 135 128
50 135 131
55 135 134
60 135 137
65 135 140
70 135 143
75 135 146
80 135 149
85 135 152
90 135 155
95 135 158
100 135 161
105 135 164
110 135 167
115 135 170
120 135 173
125 135 176
130 135 179
135 135 182
140 135 185
145 135 188
150 135 191
155 135 194
160 135 197
165 135 200
170 135 203
175 135 206
180 135 209
185 135 212
190 135 215
195 135 218
200 135 221
205 135 224
210 135 227
215 135 230
220 135 233
225 135 236
230 135 239
235 135 242
240 135 245
245 135 248
250 135 251
255 135 254
4 135 1
9 135 4
14 135 7
19 135 10
24 135 13
29 135 16
40 140 128
45 140 131
50 140 134
55 140 137
60 140 140
65 140 143
70 140 146
75 140 149
80 140 152
85 140 155
90 140 158
95 140 161
100 140 164
105 140 167
110 140 170
115 140 173
120 140 176
125 140 179
130 140 182
135 140 185
140 140 188
145 140 191
150 140 194
155 140 197
160 140 200
165 140 203
170 140 206
175 140 209
180 140 212
185 140 215
190 140 218
195 140 221
200 140 224
205 140 227
210 140 230
215 140 233
220 140 236
225 140 239
230 140 242
235 140 245
240 140 248
245 140 251
250 140 254
255 140 1
4 140 4
9 140 7
14 140 10
19 140 13
24 140 16
29 140 19
40 145 131
45 145 134
50 145 137
55 145 140
60 145 143
65 145 146
70 145 149
75 145 152
80 145 155
85 145 158
90 145 161
95 145 164
100 145 167
105 145 170
110 145 173
115 145 176
120 145 179
125 145 182
130 145 185
135 145 188
140 145 191
145 145 194
150 145 197
155 145 200
160 145 203
165 145 206
170 145 209
175 145 212
180 145 215
185 145 218
190 145 221
195 145 224
200 145 227
205 145 230
210 145 233
215 145 236
220 145 239
225 145 242
230 145 245
235 145 248
240 145 251
245 145 254
250 145 1
255 145 4
4 145 7
9 145 10
14 145 13
19 145 16
24 145 19
29 145 22
40 150 134
45 150 137
50 150 140
55 150 143
60 150 146
65 150 149
70 150 152
75 150 155
80 150 158
85 150 161
90 150 164
95 150 167
100 150 170
105 150 173
110 150 176
115 150 179
120 150 182
125 150 185
130 150 188
135 150 191
140 150 194
145 150 197
150 150 200
155 150 203
160 150 206
165 150 209
170 150 212
175 150 215
180 150 218
185 150 221
190 150 224
195 150 227
200 150 230
205 150 233
210 150 236
215 150 239
220 150 242
225 150 245
230 150 248
235 150 251
240 150 254
245 150 1
250 150 4
255 150 7
4 150 10
9 150 13
14 150 16
19 150 19
24 150 22
29 150 25
40 155 137
45 155 140
50 155 143
55 155 146
60 155 149
65 155 152
70 155 155
75 155 158
80 155 161
85 155 164
90 155 167
95 155 170
100 155 173
105 155 176
110 155 179
115 155 182
120 155 185
125 155 188
130 155 191
135 155 194
140 155 197
145 155 200
150 155 203
155 155 206
160 155 209
165 155 212
170 155 215
175 155 218
180 155 221
185 155 224
190 155 227
195 155 230
200 155 233
205 155 236
210 155 239
215 155 242
220 155 245
225 155 248
230 155 251
235 155 254
240 155 1
245 155 4
250 155 7
255 155 10
4 155 13
9 155 16
14 155 19
19 155 22
24 155 25
29 155 28
40 160 140
45 160 143
50 160 146
55 160 149
60 160 152
65 160 155
70 160 158
75 160 161
80 160 164
85 160 167
90 160 170
95 160 173
100 160 176
105 160 179
110 160 182
115 160 185
120 160 188
125 160 191
130 160 194
135 160 197
140 160 200
145 160 203
150 160 206
155 160 209
160 160 212
165 160 215
170 160 218
175 160 221
180 160 224
185 160 227
190 160 230
195 160 233
200 160 236
205 160 239
210 160 242
215 160 245
220 160 248
225 160 251
230 160 254
235 160 1
240 160 4
245 160 7
250 160 10
255 160 13
4 160 16
9 160 19
14 160 22
19 160 25
24 160 28
29 160 31
40 165 143
45 165 146
50 165 149
55 165 152
60 165 155
65 165 158
70 165 161
75 165 164
80 165 167
85 165 170
90 165 173
95 165 176
100 165 179
105 165 182
110 165 185
115 165 188
120 165 191
125 165 194
130 165 197
135 165 200
140 165 203
145 165 206
150 165 209
155 165 212
160 165 215
165 165 218
170 165 221
175 165 224
180 165 227
185 165 230
190 165 233
195 165 236
200 165 239
205 165 242
210 165 245
215 165 248
220 165 251
225 165 254
230 165 1
235 165 4
240 165 7
245 165 10
250 165 13
255 165 16
4 165 19
9 165 22
14 165 25
19 165 28
24 165 31
29 165 34
40 170 146
45 170 149
50 170 152
55 170 155
60 170 158
65 170 161
70 170 164
75 170 167
80 170 170
85 170 173
90 170 176
95 170 179
100 170 182
105 170 185
110 170 188
115 170 191
120 170 194
125 170 197
130 170 200
135 170 203
140 170 206
145 170 209
150 170 212
155 170 215
160 170 218
165 170 221
170 170 224
175 170 227
180 170 230
185 170 233
190 170 236
195 170 239
200 170 242
205 170 245
210 170 248
215 170 251
220 170 254
225 170 1
230 170 4
235 170 7
240 170 10
245 170 13
250 170 16
255 170 19
4 170 22
9 170 25
14 170 28
19 170 31
24 170 34
29 170 37
40 175 149
45 175 152
50 175 155
55 175 158
60 175 161
65 175 164
70 175 167
75 175 170
80 175 173
85 175 176
90 175 179
95 175 182
100 175 185
105 175 188
110 175 191
115 175 194
120 175 197
125 175 200
130 175 203
135 175 206
140 175 209
145 175 212
150 175 215
155 175 218
160 175 221
165 175 224
170 175 227
175 175 230
180 175 233
185 175 236
190 175 239
195 175 242
200 175 245
205 175 248
210 175 251
215 175 254
220 175 1
225 175 4
230 175 7
235 175 10
240 175 13
245 175 16
250 175 19
255 175 22
4 175 25
9 175 28
14 175 31
19 175 34
24 175 37
29 175 40
40 180 152
45 180 155
50 180 158
55 180 161
60 180 164
65 180 167
70 180 170
75 180 173
80 180 176
85 180 179
90 180 182
95 180 185
100 180 188
105 180 191
110 180 194
115 180 197
120 180 200
125 180 203
130 180 206
135 180 209
140 180 212
145 180 215
150 180 218
155 180 221
160 180 224
165 180 227
170 180 230
175 180 233
180 180 236
185 180 239
190 180 242
195 180 245
200 180 248
205 180 251
210 180 254
215 180 1
220 180 4
225 180 7
230 180 10
235 180 13
240 180 16
245 180 19
250 180 22
255 180 25
4 180 28
9 180 31
14 180 34
19 180 37
24 180 40
29 180 43
40 185 155
45 185 158
50 185 161
55 185 164
60 185 167
65 185 170
70 185 173
75 185 176
80 185 179
85 185 182
90 185 185
95 185 188
100 185 191
105 185 194
110 185 197
115 185 200
120 185 203
125 185 206
130 185 209
135 185 212
140 185 215
145 185 218
150 185 221
155 185 224
160 185 227
165 185 230
170 185 233
175 185 236
180 185 239
185 185 242
190 185 245
195 185 248
200 185 251
205 185 254
210 185 1
215 185 4
220 185 7
225 185 10
230 185 13
235 185 16
240 185 19
245 185 22
250 185 25
255 185 28
4 185 31
9 185 34
14 185 37
19 185 40
24 185 43
29 185 46
40 190 158
45 190 161
50 190 164
55 190 167
60 190 170
65 190 173
70 190 176
75 190 179
80 190 182
85 190 185
90 190 188
95 190 191
100 190 194
105 190 197
110 190 200
115 190 203
120 190 206
125 190 209
130 190 212
135 190 215
140 190 218
145 190 221
150 190 224
155 190 227
160 190 230
165 190 233
170 190 236
175 190 239
180 190 242
185 190 245
190 190 248
195 190 251
200 190 254
205 190 1
210 190 4
215 190 7
220 190 10
225 190 13
230 190 16
235 190 19
240 190 22
245 190 25
250 190 28
255 190 31
4 190 34
9 190 37
14 190 40
19 190 43
24 190 46
29 190 49
40 195 161
45 195 164
50 195 167
55 195 170
60 195 173
65 195 176
70 195 179
75 195 182
80 195 185
85 195 188
90 195 191
95 195 194
100 195 197
105 195 200
110 195 203
115 195 206
120 195 209
125 195 212
130 195 215
135 195 218
140 195 221
145 195 224
150 195 227
155 195 230
160 195 233
165 195 236
170 195 239
175 195 242
180 195 245
185 195 248
190 195 251
195 195 254
200 195 1
205 195 4
210 195 7
215 195 10
220 195 13
225 195 16
230 195 19
235 195 22
240 195 25
245 195 28
250 195 31
255 195 34
4 195 37
9 195 40
14 195 43
19 195 46
24 195 49
29 195 52
40 200 164
45 200 167
50 200 170
55 200 173
60 200 176
65 200 179
70 200 182
75 200 185
80 200 188
85 200 191
90 200 194
95 200 197
100 200 200
105 200 203
110 200 206
115 200 209
120 200 212
125 200 215
130 200 218
135 200 221
140 200 224
145 200 227
150 200 230
155 200 233
160 200 236
165 200 239
170 200 242
175 200 245
180 200 248
185 200 251
190 200 254
195 200 1
200 200 4
205 200 7
210 200 10
215 200 13
220 200 16
225 200 19
230 200 22
235 200 25
240 200 28
245 200 31
250 200 34
255 200 37
4 200 40
9 200 43
14 200 46
19 200 49
24 200 52
29 200 55
40 205 167
45 205 170
50 205 173
55 205 176
60 205 179
65 205 182
70 205 185
75 205 188
80 205 191
85 205 194
90 205 197
95 205 200
100 205 203
105 205 206
110 205 209
115 205 212
120 205 215
125 205 218
130 205 221
135 205 224
140 205 227
145 205 230
150 205 233
155 205 236
160 205 239
165 205 242
170 205 245
175 205 248
180 205 251
185 205 254
190 205 1
195 205 4
200 205 7
205 205 10
210 205 13
215 205 16
220 205 19
225 205 22
230 205 25
235 205 28
240 205 31
245 205 34
250 205 37
255 205 40
4 205 43
9 205 46
14 205 49
19 205 52
24 205 55
29 205 58
40 210 170
45 210 173
50 210 176
55 210 179
60 210 182
65 210 185
70 210 188
75 210 191
80 210 194
85 210 197
90 210 200
95 210 203
100 210 206
105 210 209
110 210 212
115 210 215
120 210 218
125 210 221
130 210 224
135 210 227
140 210 230
145 210 233
150 210 236
155 210 239
160 210 242
165 210 245
170 210 248
175 210 251
180 210 254
185 210 1
190 210 4
195 210 7
200 210 10
205 210 13
210 210 16
215 210 19
220 210 22
225 210 25
230 210 28
235 210 31
240 210 34
245 210 37
250 210 40
255 210 43
4 210 46
9 210 49
14 210 52
19 210 55
24 210 58
29 210 61
40 215 173
45 215 176
50 215 179
55 215 182
60 215 185
65 215 188
70 215 191
75 215 194
80 215 197
85 215 200
90 215 203
95 215 206
100 215 209
105 215 212
110 215 215
115 215 218
120 215 221
125 215 224
130 215 227
135 215 230
140 215 233
145 215 236
150 215 239
155 215 242
160 215 245
165 215 248
170 215 251
175 215 254
180 215 1
185 215 4
190 215 7
195 215 10
200 215 13
205 215 16
210 215 19
215 215 22
220 215 25
225 215 28
230 215 31
235 215 34
240 215 37
245 215 40
250 215 43
255 215 46
4 215 49
9 215 52
14 215 55
19 215 58
24 215 61
29 215 64
40 220 176
45 220 179
50 220 182
55 220 185
60 220 188
65 220 191
70 220 194
75 220 197
80 220 200
85 220 203
90 220 206
95 220 209
100 220 212
105 220 215
110 220 218
115 220 221
120 220 224
125 220 227
130 220 230
135 220 233
140 220 236
145 220 239
150 220 242
155 220 245
160 220 248
165 220 251
170 220 254
175 220 1
180 220 4
185 220 7
190 220 10
195 220 13
200 220 16
205 220 19
210 220 22
215 220 25
220 220 28
225 220 31
230 220 34
235 220 37
240 220 40
245 220 43
250 220 46
255 220 49
4 220 52
9 220 55
14 220 58
19 220 61
24 220 64
29 220 67
40 225 179
45 225 182
50 225 185
55 225 188
60 225 191
65 225 194
70 225 197
75 225 200
80 225 203
85 225 206
90 225 209
95 225 212
100 225 215
105 225 218
110 225 221
115 225 224
120 225 227
125 225 230
130 225 233
135 225 236
140 225 239
145 225 242
150 225 245
155 225 248
160 225 251
165 225 254
170 225 1
175 225 4
180 225 7
185 225 10
190 225 13
195 225 16
200 225 19
205 225 22
210 225 25
215 225 28
220 225 31
225 225 34
230 225 37
235 225 40
240 225 43
245 225 46
250 225 49
255 225 52
4 225 55
9 225 58
14 225 61
19 225 64
24 225 67
29 225 70
40 230 182
45 230 185
50 230 188
55 230 191
60 230 194
65 230 197
70 230 200
75 230 203
80 230 206
85 230 209
90 230 212
95 230 215
100 230 218
105 230 221
110 230 224
115 230 227
120 230 230
125 230 233
130 230 236
135 230 239
140 230 242
145 230 245
150 230 248
155 230 251
160 230 254
165 230 1
170 230 4
175 230 7
180 230 10
185 230 13
190 230 16
195 230 19
200 230 22
205 230 25
210 230 28
215 230 31
220 230 34
225 230 37
230 230 40
235 230 43
240 230 46
245 230 49
250 230 52
255 230 55
4 230 58
9 230 61
14 230 64
19 230 67
24 230 70
29 230 73
40 235 185
45 235 188
50 235 191
55 235 194
60 235 197
65 235 200
70 235 203
75 235 206
80 235 209
85 235 212
90 235 215
95 235 218
100 235 221
105 235 224
110 235 227
115 235 230
120 235 233
125 235 236
130 235 239
135 235 242
140 235 245
145 235 248
150 235 251
155 235 254
160 235 1
165 235 4
170 235 7
175 235 10
180 235 13
185 235 16
190 235 19
195 235 22
200 235 25
205 235 28
210 235 31
215 235 34
220 235 37
225 235 40
230 235 43
235 235 46
240 235 49
245 235 52
250 235 55
255 235 58
4 235 61
9 235 64
14 235 67
19 235 70
24 235 73
29 235 76
40 240 188
45 240 191
50 240 194
55 240 197
60 240 200
65 240 203
70 240 206
75 240 209
80 240 212
85 240 215
90 240 218
95 240 221
100 240 224
105 240 227
110 240 230
115 240 233
120 240 236
125 240 239
130 240 242
135 240 245
140 240 248
145 240 251
150 240 254
155 240 1
160 240 4
165 240 7
170 240 10
175 240 13
180 240 16
185 240 19
190 240 22
195 240 25
200 240 28
205 240 31
210 240 34
215 240 37
220 240 40
225 240 43
230 240 46
235 240 49
240 240 52
245 240 55
250 240 58
255 240 61
4 240 64
9 240 67
14 240 70
19 240 73
24 240 76
29 240 79
40 245 191
45 245 194
50 245 197
55 245 200
60 245 203
65 245 206
70 245 209
75 245 212
80 245 215
85 245 218
90 245 221
95 245 224
100 245 227
105 245 230
110 245 233
115 245 236
120 245 239
125 245 242
130 245 245
135 245 248
140 245 251
145 245 254
150 245 1
155 245 4
160 245 7
165 245 10
170 245 13
175 245 16
180 245 19
185 245 22
190 245 25
195 245 28
200 245 31
205 245 34
210 245 37
215 245 40
220 245 43
225 245 46
230 245 49
235 245 52
240 245 55
245 245 58
250 245 61
255 245 64
4 245 67
9 245 70
14 245 73
19 245 76
24 245 79
29 245 82
40 250 194
45 250 197
50 250 200
55 250 203
60 250 206
65 250 209
70 250 212
75 250 215
80 250 218
85 250 221
90 250 224
95 250 227
100 250 230
105 250 233
110 250 236
115 250 239
120 250 242
125 250 245
130 250 248
135 250 251
140 250 254
145 250 1
150 250 4
155 250 7
160 250 10
165 250 13
170 250 16
175 250 19
180 250 22
185 250 25
190 250 28
195 250 31
200 250 34
205 250 37
210 250 40
215 250 43
220 250 46
225 250 49
230 250 52
235 250 55
240 250 58
245 250 61
250 250 64
255 250 67
4 250 70
9 250 73
14 250 76
19 250 79
24 250 82
29 250 85
40 255 197
45 255 200
50 255 203
55 255 206
60 255 209
65 255 212
70 255 215
75 255 218
80 255 221
85 255 224
90 255 227
95 255 230
100 255 233
105 255 236
110 255 239
115 255 242
120 255 245
125 255 248
130 255 251
135 255 254
140 255 1
145 255 4
150 255 7
155 255 10
160 255 13
165 255 16
170 255 19
175 255 22
180 255 25
185 255 28
190 255 31
195 255 34
200 255 37
205 255 40
210 255 43
215 255 46
220 255 49
225 255 52
230 255 55
235 255 58
240 255 61
245 255 64
250 255 67
255 255 70
4 255 73
9 255 76
14 255 79
19 255 82
24 255 85
29 255 88
40 4 200
45 4 203
50 4 206
55 4 209
60 4 212
65 4 215
70 4 218
75 4 221
80 4 224
85 4 227
90 4 230
95 4 233
100 4 236
105 4 239
110 4 242
115 4 245
120 4 248
125 4 251
130 4 254
135 4 1
140 4 4
145 4 7
150 4 10
155 4 13
160 4 16
165 4 19
170 4 22
175 4 25
180 4 28
185 4 31
190 4 34
195 4 37
200 4 40
205 4 43
210 4 46
215 4 49
220 4 52
225 4 55
230 4 58
235 4 61
240 4 64
245 4 67
250 4 70
255 4 73
4 4 76
9 4 79
14 4 82
19 4 85
24 4 88
29 4 91
40 9 203
45 9 206
50 9 209
55 9 212
60 9 215
65 9 218
70 9 221
75 9 224
80 9 227
85 9 230
90 9 233
95 9 236
100 9 239
105 9 242
110 9 245
115 9 248
120 9 251
125 9 254
130 9 1
135 9 4
140 9 7
145 9 10
150 9 13
155 9 16
160 9 19
165 9 22
170 9 25
175 9 28
180 9 31
185 9 34
190 9 37
195 9 40
200 9 43
205 9 46
210 9 49
215 9 52
220 9 55
225 9 58
230 9 61
235 9 64
240 9 67
245 9 70
250 9 73
255 9 76
4 9 79
9 9 82
14 9 85
19 9 88
24 9 91
29 9 94
40 14 206
45 14 209
50 14 212
55 14 215
60 14 218
65 14 221
70 14 224
75 14 227
80 14 230
85 14 233
90 14 236
95 14 239
100 14 242
105 14 245
110 14 248
115 14 251
120 14 254
125 14 1
130 14 4
135 14 7
140 14 10
145 14 13
150 14 16
155 14 19
160 14 22
165 14 25
170 14 28
175 14 31
180 14 34
185 14 37
190 14 40
195 14 43
200 14 46
205 14 49
210 14 52
215 14 55
220 14 58
225 14 61
230 14 64
235 14 67
240 14 70
245 14 73
250 14 76
255 14 79
4 14 82
9 14 85
14 14 88
19 14 91
24 14 94
29 14 97
40 19 209
45 19 212
50 19 215
55 19 218
60 19 221
65 19 224
70 19 227
75 19 230
80 19 233
85 19 236
90 19 239
95 19 242
100 19 245
105 19 248
110 19 251
115 19 254
120 19 1
125 19 4
130 19 7
135 19 10
140 19 13
145 19 16
150 19 19
155 19 22
160 19 25
165 19 28
170 19 31
175 19 34
180 19 37
185 19 40
190 19 43
195 19 46
200 19 49
205 19 52
210 19 55
215 19 58
220 19 61
225 19 64
230 19 67
235 19 70
240 19 73
245 19 76
250 19 79
255 19 82
4 19 85
9 19 88
14 19 91
19 19 94
24 19 97
29 19 100
40 24 212
45 24 215
50 24 218
55 24 221
60 24 224
65 24 227
70 24 230
75 24 233
80 24 236
85 24 239
90 24 242
95 24 245
100 24 248
105 24 251
110 24 254
115 24 1
120 24 4
125 24 7
130 24 10
135 24 13
140 24 16
145 24 19
150 24 22
155 24 25
160 24 28
165 24 31
170 24 34
175 24 37
180 24 40
185 24 43
190 24 46
195 24 49
200 24 52
205 24 55
210 24 58
215 24 61
220 24 64
225 24 67
230 24 70
235 24 73
240 24 76
245 24 79
250 24 82
255 24 85
4 24 88
9 24 91
14 24 94
19 24 97
24 24 100
29 24 103
40 29 215
45 29 218
50 29 221
55 29 224
60 29 227
65 29 230
70 29 233
75 29 236
80 29 239
85 29 242
90 29 245
95 29 248
100 29 251
105 29 254
110 29 1
115 29 4
120 29 7
125 29 10
130 29 13
135 29 16
140 29 19
145 29 22
150 29 25
155 29 28
160 29 31
165 29 34
170 29 37
175 29 40
180 29 43
185 29 46
190 29 49
195 29 52
200 29 55
205 29 58
210 29 61
215 29 64
220 29 67
225 29 70
230 29 73
235 29 76
240 29 79
245 29 82
250 29 85
255 29 88
4 29 91
9 29 94
14 29 97
19 29 100
24 29 103
29 29 106
40 34 218
45 34 221
50 34 224
55 34 227
60 34 230
65 34 233
70 34 236
75 34 239
80 34 242
85 34 245
90 34 248
95 34 251
100 34 254
105 34 1
110 34 4
115 34 7
120 34 10
125 34 13
130 34 16
135 34 19
140 34 22
145 34 25
150 34 28
155 34 31
160 34 34
165 34 37
170 34 40
175 34 43
180 34 46
185 34 49
190 34 52
195 34 55
200 34 58
205 34 61
210 34 64
215 34 67
220 34 70
225 34 73
230 34 76
235 34 79
240 34 82
245 34 85
250 34 88
255 34 91
4 34 94
9 34 97
14 34 100
19 34 103
24 34 106
29 34 109
40 39 221
45 39 224
50 39 227
55 39 230
60 39 233
65 39 236
70 39 239
75 39 242
80 39 245
85 39 248
90 39 251
95 39 254
100 39 1
105 39 4
110 39 7
115 39 10
120 39 13
125 39 16
130 39 19
135 39 22
140 39 25
145 39 28
150 39 31
155 39 34
160 39 37
165 39 40
170 39 43
175 39 46
180 39 49
185 39 52
190 39 55
195 39 58
200 39 61
205 39 64
210 39 67
215 39 70
220 39 73
225 39 76
230 39 79
235 39 82
240 39 85
245 39 88
250 39 91
255 39 94
4 39 97
9 39 100
14 39 103
19 39 106
24 39 109
29 39 112
40 44 224
45 44 227
50 44 230
55 44 233
60 44 236
65 44 239
70 44 242
75 44 245
80 44 248
85 44 251
90 44 254
95 44 1
100 44 4
105 44 7
110 44 10
115 44 13
120 44 16
125 44 19
130 44 22
135 44 25
140 44 28
145 44 31
150 44 34
155 44 37
160 44 40
165 44 43
170 44 46
175 44 49
180 44 52
185 44 55
190 44 58
195 44 61
200 44 64
205 44 67
210 44 70
215 44 73
220 44 76
225 44 79
230 44 82
235 44 85
240 44 88
245 44 91
250 44 94
255 44 97
4 44 100
9 44 103
14 44 106
19 44 109
24 44 112
29 44 115
40 49 227
45 49 230
50 49 233
55 49 236
60 49 239
65 49 242
70 49 245
75 49 248
80 49 251
85 49 254
90 49 1
95 49 4
100 49 7
105 49 10
110 49 13
115 49 16
120 49 19
125 49 22
130 49 25
135 49 28
140 49 31
145 49 34
150 49 37
155 49 40
160 49 43
165 49 46
170 49 49
175 49 52
180 49 55
185 49 58
190 49 61
195 49 64
200 49 67
205 49 70
210 49 73
215 49 76
220 49 79
225 49 82
230 49 85
235 49 88
240 49 91
245 49 94
250 49 97
255 49 100
4 49 103
9 49 106
14 49 109
19 49 112
24 49 115
29 49 118
