P3
50 50
255
80 120 160
85 120 163
90 120 166
95 120 169
100 120 172
105 120 175
110 120 178
115 120 181
120 120 184
125 120 187
130 120 190
135 120 193
140 120 196
145 120 199
150 120 202
155 120 205
160 120 208
165 120 211
170 120 214
175 120 217
180 120 220
185 120 223
190 120 226
195 120 229
200 120 232
205 120 235
210 120 238
215 120 241
220 120 244
225 120 247
230 120 250
235 120 253
240 120 0
245 120 3
250 120 6
255 120 9
4 120 12
9 120 15
14 120 18
19 120 21
24 120 24
29 120 27
34 120 30
39 120 33
44 120 36
49 120 39
54 120 42
59 120 45
64 120 48
69 120 51
80 125 163
85 125 166
90 125 169
95 125 172
100 125 175
105 125 178
110 125 181
115 125 184
120 125 187
125 125 190
130 125 193
135 125 196
140 125 199
145 125 202
150 125 205
155 125 208
160 125 211
165 125 214
170 125 217
175 125 220
180 125 223
185 125 226
190 125 229
195 125 232
200 125 235
205 125 238
210 125 241
215 125 244
220 125 247
225 125 250
230 125 253
235 125 0
240 125 3
245 125 6
250 125 9
255 125 12
4 125 15
9 125 18
14 125 21
19 125 24
24 125 27
29 125 30
34 125 33
39 125 36
44 125 39
49 125 42
54 125 45
59 125 48
64 125 51
69 125 54
80 130 166
85 130 169
90 130 172
95 130 175
100 130 178
105 130 181
110 130 184
115 130 187
120 130 190
125 130 193
130 130 196
135 130 199
140 130 202
145 130 205
150 130 208
155 130 211
160 130 214
165 130 217
170 130 220
175 130 223
180 130 226
185 130 229
190 130 232
195 130 235
200 130 238
205 130 241
210 130 244
215 130 247
220 130 250
225 130 253
230 130 0
235 130 3
240 130 6
245 130 9
250 130 12
255 130 15
4 130 18
9 130 21
14 130 24
19 130 27
24 130 30
29 130 33
34 130 36
39 130 39
44 130 42
49 130 45
54 130 48
59 130 51
64 130 54
69 130 57
80 135 169
85 135 172
90 135 175
95 135 178
100 135 181
105 135 184
110 135 187
115 135 190
120 135 193
125 135 196
130 135 199
135 135 202
140 135 205
145 135 208
150 135 211
155 135 214
160 135 217
165 135 220
170 135 223
175 135 226
180 135 229
185 135 232
190 135 235
195 135 238
200 135 241
205 135 244
210 135 247
215 135 250
220 135 253
225 135 0
230 135 3
235 135 6
240 135 9
245 135 12
250 135 15
255 135 18
4 135 21
9 135 24
14 135 27
19 135 30
24 135 33
29 135 36
34 135 39
39 135 42
44 135 45
49 135 48
54 135 51
59 135 54
64 135 57
69 135 60
80 140 172
85 140 175
90 140 178
95 140 181
100 140 184
105 140 187
110 140 190
115 140 193
120 140 196
125 140 199
130 140 202
135 140 205
140 140 208
145 140 211
150 140 214
155 140 217
160 140 220
165 140 223
170 140 226
175 140 229
180 140 232
185 140 235
190 140 238
195 140 241
200 140 244
205 140 247
210 140 250
215 140 253
220 140 0
225 140 3
230 140 6
235 140 9
240 140 12
245 140 15
250 140 18
255 140 21
4 140 24
9 140 27
14 140 30
19 140 33
24 140 36
29 140 39
34 140 42
39 140 45
44 140 48
49 140 51
54 140 54
59 140 57
64 140 60
69 140 63
80 145 175
85 145 178
90 145 181
95 145 184
100 145 187
105 145 190
110 145 193
115 145 196
120 145 199
125 145 202
130 145 205
135 145 208
140 145 211
145 145 214
150 145 217
155 145 220
160 145 223
165 145 226
170 145 229
175 145 232
180 145 235
185 145 238
190 145 241
195 145 244
200 145 247
205 145 250
210 145 253
215 145 0
220 145 3
225 145 6
230 145 9
235 145 12
240 145 15
245 145 18
250 145 21
255 145 24
4 145 27
9 145 30
14 145 33
19 145 36
24 145 39
29 145 42
34 145 45
39 145 48
44 145 51
49 145 54
54 145 57
59 145 60
64 145 63
69 145 66
80 150 178
85 150 181
90 150 184
95 150 187
100 150 190
105 150 193
110 150 196
115 150 199
120 150 202
125 150 205
130 150 208
135 150 211
140 150 214
145 150 217
150 150 220
155 150 223
160 150 226
165 150 229
170 150 232
175 150 235
180 150 238
185 150 241
190 150 244
195 150 247
200 150 250
205 150 253
210 150 0
215 150 3
220 150 6
225 150 9
230 150 12
235 150 15
240 150 18
245 150 21
250 150 24
255 150 27
4 150 30
9 150 33
14 150 36
19 150 39
24 150 42
29 150 45
34 150 48
39 150 51
44 150 54
49 150 57
54 150 60
59 150 63
64 150 66
69 150 69
80 155 181
85 155 184
90 155 187
95 155 190
100 155 193
105 155 196
110 155 199
115 155 202
120 155 205
125 155 208
130 155 211
135 155 214
140 155 217
145 155 220
150 155 223
155 155 226
160 155 229
165 155 232
170 155 235
175 155 238
180 155 241
185 155 244
190 155 247
195 155 250
200 155 253
205 155 0
210 155 3
215 155 6
220 155 9
225 155 12
230 155 15
235 155 18
240 155 21
245 155 24
250 155 27
255 155 30
4 155 33
9 155 36
14 155 39
19 155 42
24 155 45
29 155 48
34 155 51
39 155 54
44 155 57
49 155 60
54 155 63
59 155 66
64 155 69
69 155 72
80 160 184
85 160 187
90 160 190
95 160 193
100 160 196
105 160 199
110 160 202
115 160 205
120 160 208
125 160 211
130 160 214
135 160 217
140 160 220
145 160 223
150 160 226
155 160 229
160 160 232
165 160 235
170 160 238
175 160 241
180 160 244
185 160 247
190 160 250
195 160 253
200 160 0
205 160 3
210 160 6
215 160 9
220 160 12
225 160 15
230 160 18
235 160 21
240 160 24
245 160 27
250 160 30
255 160 33
4 160 36
9 160 39
14 160 42
19 160 45
24 160 48
29 160 51
34 160 54
39 160 57
44 160 60
49 160 63
54 160 66
59 160 69
64 160 72
69 160 75
80 165 187
85 165 190
90 165 193
95 165 196
100 165 199
105 165 202
110 165 205
115 165 208
120 165 211
125 165 214
130 165 217
135 165 220
140 165 223
145 165 226
150 165 229
155 165 232
160 165 235
165 165 238
170 165 241
175 165 244
180 165 247
185 165 250
190 165 253
195 165 0
200 165 3
205 165 6
210 165 9
215 165 12
220 165 15
225 165 18
230 165 21
235 165 24
240 165 27
245 165 30
250 165 33
255 165 36
4 165 39
9 165 42
14 165 45
19 165 48
24 165 51
29 165 54
34 165 57
39 165 60
44 165 63
49 165 66
54 165 69
59 165 72
64 165 75
69 165 78
80 170 190
85 170 193
90 170 196
95 170 199
100 170 202
105 170 205
110 170 208
115 170 211
120 170 214
125 170 217
130 170 220
135 170 223
140 170 226
145 170 229
150 170 232
155 170 235
160 170 238
165 170 241
170 170 244
175 170 247
180 170 250
185 170 253
190 170 0
195 170 3
200 170 6
205 170 9
210 170 12
215 170 15
220 170 18
225 170 21
230 170 24
235 170 27
240 170 30
245 170 33
250 170 36
255 170 39
4 170 42
9 170 45
14 170 48
19 170 51
24 170 54
29 170 57
34 170 60
39 170 63
44 170 66
49 170 69
54 170 72
59 170 75
64 170 78
69 170 81
80 175 193
85 175 196
90 175 199
95 175 202
100 175 205
105 175 208
110 175 211
115 175 214
120 175 217
125 175 220
130 175 223
135 175 226
140 175 229
145 175 232
150 175 235
155 175 238
160 175 241
165 175 244
170 175 247
175 175 250
180 175 253
185 175 0
190 175 3
195 175 6
200 175 9
205 175 12
210 175 15
215 175 18
220 175 21
225 175 24
230 175 27
235 175 30
240 175 33
245 175 36
250 175 39
255 175 42
4 175 45
9 175 48
14 175 51
19 175 54
24 175 57
29 175 60
34 175 63
39 175 66
44 175 69
49 175 72
54 175 75
59 175 78
64 175 81
69 175 84
80 180 196
85 180 199
90 180 202
95 180 205
100 180 208
105 180 211
110 180 214
115 180 217
120 180 220
125 180 223
130 180 226
135 180 229
140 180 232
145 180 235
150 180 238
155 180 241
160 180 244
165 180 247
170 180 250
175 180 253
180 180 0
185 180 3
190 180 6
195 180 9
200 180 12
205 180 15
210 180 18
215 180 21
220 180 24
225 180 27
230 180 30
235 180 33
240 180 36
245 180 39
250 180 42
255 180 45
4 180 48
9 180 51
14 180 54
19 180 57
24 180 60
29 180 63
34 180 66
39 180 69
44 180 72
49 180 75
54 180 78
59 180 81
64 180 84
69 180 87
80 185 199
85 185 202
90 185 205
95 185 208
100 185 211
105 185 214
110 185 217
115 185 220
120 185 223
125 185 226
130 185 229
135 185 232
140 185 235
145 185 238
150 185 241
155 185 244
160 185 247
165 185 250
170 185 253
175 185 0
180 185 3
185 185 6
190 185 9
195 185 12
200 185 15
205 185 18
210 185 21
215 185 24
220 185 27
225 185 30
230 185 33
235 185 36
240 185 39
245 185 42
250 185 45
255 185 48
4 185 51
9 185 54
14 185 57
19 185 60
24 185 63
29 185 66
34 185 69
39 185 72
44 185 75
49 185 78
54 185 81
59 185 84
64 185 87
69 185 90
80 190 202
85 190 205
90 190 208
95 190 211
100 190 214
105 190 217
110 190 220
115 190 223
120 190 226
125 190 229
130 190 232
135 190 235
140 190 238
145 190 241
150 190 244
155 190 247
160 190 250
165 190 253
170 190 0
175 190 3
180 190 6
185 190 9
190 190 12
195 190 15
200 190 18
205 190 21
210 190 24
215 190 27
220 190 30
225 190 33
230 190 36
235 190 39
240 190 42
245 190 45
250 190 48
255 190 51
4 190 54
9 190 57
14 190 60
19 190 63
24 190 66
29 190 69
34 190 72
39 190 75
44 190 78
49 190 81
54 190 84
59 190 87
64 190 90
69 190 93
80 195 205
85 195 208
90 195 211
95 195 214
100 195 217
105 195 220
110 195 223
115 195 226
120 195 229
125 195 232
130 195 235
135 195 238
140 195 241
145 195 244
150 195 247
155 195 250
160 195 253
165 195 0
170 195 3
175 195 6
180 195 9
185 195 12
190 195 15
195 195 18
200 195 21
205 195 24
210 195 27
215 195 30
220 195 33
225 195 36
230 195 39
235 195 42
240 195 45
245 195 48
250 195 51
255 195 54
4 195 57
9 195 60
14 195 63
19 195 66
24 195 69
29 195 72
34 195 75
39 195 78
44 195 81
49 195 84
54 195 87
59 195 90
64 195 93
69 195 96
80 200 208
85 200 211
90 200 214
95 200 217
100 200 220
105 200 223
110 200 226
115 200 229
120 200 232
125 200 235
130 200 238
135 200 241
140 200 244
145 200 247
150 200 250
155 200 253
160 200 0
165 200 3
170 200 6
175 200 9
180 200 12
185 200 15
190 200 18
195 200 21
200 200 24
205 200 27
210 200 30
215 200 33
220 200 36
225 200 39
230 200 42
235 200 45
240 200 48
245 200 51
250 200 54
255 200 57
4 200 60
9 200 63
14 200 66
19 200 69
24 200 72
29 200 75
34 200 78
39 200 81
44 200 84
49 200 87
54 200 90
59 200 93
64 200 96
69 200 99
80 205 211
85 205 214
90 205 217
95 205 220
100 205 223
105 205 226
110 205 229
115 205 232
120 205 235
125 205 238
130 205 241
135 205 244
140 205 247
145 205 250
150 205 253
155 205 0
160 205 3
165 205 6
170 205 9
175 205 12
180 205 15
185 205 18
190 205 21
195 205 24
200 205 27
205 205 30
210 205 33
215 205 36
220 205 39
225 205 42
230 205 45
235 205 48
240 205 51
245 205 54
250 205 57
255 205 60
4 205 63
9 205 66
14 205 69
19 205 72
24 205 75
29 205 78
34 205 81
39 205 84
44 205 87
49 205 90
54 205 93
59 205 96
64 205 99
69 205 102
80 210 214
85 210 217
90 210 220
95 210 223
100 210 226
105 210 229
110 210 232
115 210 235
120 210 238
125 210 241
130 210 244
135 210 247
140 210 250
145 210 253
150 210 0
155 210 3
160 210 6
165 210 9
170 210 12
175 210 15
180 210 18
185 210 21
190 210 24
195 210 27
200 210 30
205 210 33
210 210 36
215 210 39
220 210 42
225 210 45
230 210 48
235 210 51
240 210 54
245 210 57
250 210 60
255 210 63
4 210 66
9 210 69
14 210 72
19 210 75
24 210 78
29 210 81
34 210 84
39 210 87
44 210 90
49 210 93
54 210 96
59 210 99
64 210 102
69 210 105
80 215 217
85 215 220
90 215 223
95 215 226
100 215 229
105 215 232
110 215 235
115 215 238
120 215 241
125 215 244
130 215 247
135 215 250
140 215 253
145 215 0
150 215 3
155 215 6
160 215 9
165 215 12
170 215 15
175 215 18
180 215 21
185 215 24
190 215 27
195 215 30
200 215 33
205 215 36
210 215 39
215 215 42
220 215 45
225 215 48
230 215 51
235 215 54
240 215 57
245 215 60
250 215 63
255 215 66
4 215 69
9 215 72
14 215 75
19 215 78
24 215 81
29 215 84
34 215 87
39 215 90
44 215 93
49 215 96
54 215 99
59 215 102
64 215 105
69 215 108
80 220 220
85 220 223
90 220 226
95 220 229
100 220 232
105 220 235
110 220 238
115 220 241
120 220 244
125 220 247
130 220 250
135 220 253
140 220 0
145 220 3
150 220 6
155 220 9
160 220 12
165 220 15
170 220 18
175 220 21
180 220 24
185 220 27
190 220 30
195 220 33
200 220 36
205 220 39
210 220 42
215 220 45
220 220 48
225 220 51
230 220 54
235 220 57
240 220 60
245 220 63
250 220 66
255 220 69
4 220 72
9 220 75
14 220 78
19 220 81
24 220 84
29 220 87
34 220 90
39 220 93
44 220 96
49 220 99
54 220 102
59 220 105
64 220 108
69 220 111
80 225 223
85 225 226
90 225 229
95 225 232
100 225 235
105 225 238
110 225 241
115 225 244
120 225 247
125 225 250
130 225 253
135 225 0
140 225 3
145 225 6
150 225 9
155 225 12
160 225 15
165 225 18
170 225 21
175 225 24
180 225 27
185 225 30
190 225 33
195 225 36
200 225 39
205 225 42
210 225 45
215 225 48
220 225 51
225 225 54
230 225 57
235 225 60
240 225 63
245 225 66
250 225 69
255 225 72
4 225 75
9 225 78
14 225 81
19 225 84
24 225 87
29 225 90
34 225 93
39 225 96
44 225 99
49 225 102
54 225 105
59 225 108
64 225 111
69 225 114
80 230 226
85 230 229
90 230 232
95 230 235
100 230 238
105 230 241
110 230 244
115 230 247
120 230 250
125 230 253
130 230 0
135 230 3
140 230 6
145 230 9
150 230 12
155 230 15
160 230 18
165 230 21
170 230 24
175 230 27
180 230 30
185 230 33
190 230 36
195 230 39
200 230 42
205 230 45
210 230 48
215 230 51
220 230 54
225 230 57
230 230 60
235 230 63
240 230 66
245 230 69
250 230 72
255 230 75
4 230 78
9 230 81
14 230 84
19 230 87
24 230 90
29 230 93
34 230 96
39 230 99
44 230 102
49 230 105
54 230 108
59 230 111
64 230 114
69 230 117
80 235 229
85 235 232
90 235 235
95 235 238
100 235 241
105 235 244
110 235 247
115 235 250
120 235 253
125 235 0
130 235 3
135 235 6
140 235 9
145 235 12
150 235 15
155 235 18
160 235 21
165 235 24
170 235 27
175 235 30
180 235 33
185 235 36
190 235 39
195 235 42
200 235 45
205 235 48
210 235 51
215 235 54
220 235 57
225 235 60
230 235 63
235 235 66
240 235 69
245 235 72
250 235 75
255 235 78
4 235 81
9 235 84
14 235 87
19 235 90
24 235 93
29 235 96
34 235 99
39 235 102
44 235 105
49 235 108
54 235 111
59 235 114
64 235 117
69 235 120
80 240 232
85 240 235
90 240 238
95 240 241
100 240 244
105 240 247
110 240 250
115 240 253
120 240 0
125 240 3
130 240 6
135 240 9
140 240 12
145 240 15
150 240 18
155 240 21
160 240 24
165 240 27
170 240 30
175 240 33
180 240 36
185 240 39
190 240 42
195 240 45
200 240 48
205 240 51
210 240 54
215 240 57
220 240 60
225 240 63
230 240 66
235 240 69
240 240 72
245 240 75
250 240 78
255 240 81
4 240 84
9 240 87
14 240 90
19 240 93
24 240 96
29 240 99
34 240 102
39 240 105
44 240 108
49 240 111
54 240 114
59 240 117
64 240 120
69 240 123
80 245 235
85 245 238
90 245 241
95 245 244
100 245 247
105 245 250
110 245 253
115 245 0
120 245 3
125 245 6
130 245 9
135 245 12
140 245 15
145 245 18
150 245 21
155 245 24
160 245 27
165 245 30
170 245 33
175 245 36
180 245 39
185 245 42
190 245 45
195 245 48
200 245 51
205 245 54
210 245 57
215 245 60
220 245 63
225 245 66
230 245 69
235 245 72
240 245 75
245 245 78
250 245 81
255 245 84
4 245 87
9 245 90
14 245 93
19 245 96
24 245 99
29 245 102
34 245 105
39 245 108
44 245 111
49 245 114
54 245 117
59 245 120
64 245 123
69 245 126
80 250 238
85 250 241
90 250 244
95 250 247
100 250 250
105 250 253
110 250 0
115 250 3
120 250 6
125 250 9
130 250 12
135 250 15
140 250 18
145 250 21
150 250 24
155 250 27
160 250 30
165 250 33
170 250 36
175 250 39
180 250 42
185 250 45
190 250 48
195 250 51
200 250 54
205 250 57
210 250 60
215 250 63
220 250 66
225 250 69
230 250 72
235 250 75
240 250 78
245 250 81
250 250 84
255 250 87
4 250 90
9 250 93
14 250 96
19 250 99
24 250 102
29 250 105
34 250 108
39 250 111
44 250 114
49 250 117
54 250 120
59 250 123
64 250 126
69 250 129
80 255 241
85 255 244
90 255 247
95 255 250
100 255 253
105 255 0
110 255 3
115 255 6
120 255 9
125 255 12
130 255 15
135 255 18
140 255 21
145 255 24
150 255 27
155 255 30
160 255 33
165 255 36
170 255 39
175 255 42
180 255 45
185 255 48
190 255 51
195 255 54
200 255 57
205 255 60
210 255 63
215 255 66
220 255 69
225 255 72
230 255 75
235 255 78
240 255 81
245 255 84
250 255 87
255 255 90
4 255 93
9 255 96
14 255 99
19 255 102
24 255 105
29 255 108
34 255 111
39 255 114
44 255 117
49 255 120
54 255 123
59 255 126
64 255 129
69 255 132
80 4 244
85 4 247
90 4 250
95 4 253
100 4 0
105 4 3
110 4 6
115 4 9
120 4 12
125 4 15
130 4 18
135 4 21
140 4 24
145 4 27
150 4 30
155 4 33
160 4 36
165 4 39
170 4 42
175 4 45
180 4 48
185 4 51
190 4 54
195 4 57
200 4 60
205 4 63
210 4 66
215 4 69
220 4 72
225 4 75
230 4 78
235 4 81
240 4 84
245 4 87
250 4 90
255 4 93
4 4 96
9 4 99
14 4 102
19 4 105
24 4 108
29 4 111
34 4 114
39 4 117
44 4 120
49 4 123
54 4 126
59 4 129
64 4 132
69 4 135
80 9 247
85 9 250
90 9 253
95 9 0
100 9 3
105 9 6
110 9 9
115 9 12
120 9 15
125 9 18
130 9 21
135 9 24
140 9 27
145 9 30
150 9 33
155 9 36
160 9 39
165 9 42
170 9 45
175 9 48
180 9 51
185 9 54
190 9 57
195 9 60
200 9 63
205 9 66
210 9 69
215 9 72
220 9 75
225 9 78
230 9 81
235 9 84
240 9 87
245 9 90
250 9 93
255 9 96
4 9 99
9 9 102
14 9 105
19 9 108
24 9 111
29 9 114
34 9 117
39 9 120
44 9 123
49 9 126
54 9 129
59 9 132
64 9 135
69 9 138
80 14 250
85 14 253
90 14 0
95 14 3
100 14 6
105 14 9
110 14 12
115 14 15
120 14 18
125 14 21
130 14 24
135 14 27
140 14 30
145 14 33
150 14 36
155 14 39
160 14 42
165 14 45
170 14 48
175 14 51
180 14 54
185 14 57
190 14 60
195 14 63
200 14 66
205 14 69
210 14 72
215 14 75
220 14 78
225 14 81
230 14 84
235 14 87
240 14 90
245 14 93
250 14 96
255 14 99
4 14 102
9 14 105
14 14 108
19 14 111
24 14 114
29 14 117
34 14 120
39 14 123
44 14 126
49 14 129
54 14 132
59 14 135
64 14 138
69 14 141
80 19 253
85 19 0
90 19 3
95 19 6
100 19 9
105 19 12
110 19 15
115 19 18
120 19 21
125 19 24
130 19 27
135 19 30
140 19 33
145 19 36
150 19 39
155 19 42
160 19 45
165 19 48
170 19 51
175 19 54
180 19 57
185 19 60
190 19 63
195 19 66
200 19 69
205 19 72
210 19 75
215 19 78
220 19 81
225 19 84
230 19 87
235 19 90
240 19 93
245 19 96
250 19 99
255 19 102
4 19 105
9 19 108
14 19 111
19 19 114
24 19 117
29 19 120
34 19 123
39 19 126
44 19 129
49 19 132
54 19 135
59 19 138
64 19 141
69 19 144
80 24 0
85 24 3
90 24 6
95 24 9
100 24 12
105 24 15
110 24 18
115 24 21
120 24 24
125 24 27
130 24 30
135 24 33
140 24 36
145 24 39
150 24 42
155 24 45
160 24 48
165 24 51
170 24 54
175 24 57
180 24 60
185 24 63
190 24 66
195 24 69
200 24 72
205 24 75
210 24 78
215 24 81
220 24 84
225 24 87
230 24 90
235 24 93
240 24 96
245 24 99
250 24 102
255 24 105
4 24 108
9 24 111
14 24 114
19 24 117
24 24 120
29 24 123
34 24 126
39 24 129
44 24 132
49 24 135
54 24 138
59 24 141
64 24 144
69 24 147
80 29 3
85 29 6
90 29 9
95 29 12
100 29 15
105 29 18
110 29 21
115 29 24
120 29 27
125 29 30
130 29 33
135 29 36
140 29 39
145 29 42
150 29 45
155 29 48
160 29 51
165 29 54
170 29 57
175 29 60
180 29 63
185 29 66
190 29 69
195 29 72
200 29 75
205 29 78
210 29 81
215 29 84
220 29 87
225 29 90
230 29 93
235 29 96
240 29 99
245 29 102
250 29 105
255 29 108
4 29 111
9 29 114
14 29 117
19 29 120
24 29 123
29 29 126
34 29 129
39 29 132
44 29 135
49 29 138
54 29 141
59 29 144
64 29 147
69 29 150
80 34 6
85 34 9
90 34 12
95 34 15
100 34 18
105 34 21
110 34 24
115 34 27
120 34 30
125 34 33
130 34 36
135 34 39
140 34 42
145 34 45
150 34 48
155 34 51
160 34 54
165 34 57
170 34 60
175 34 63
180 34 66
185 34 69
190 34 72
195 34 75
200 34 78
205 34 81
210 34 84
215 34 87
220 34 90
225 34 93
230 34 96
235 34 99
240 34 102
245 34 105
250 34 108
255 34 111
4 34 114
9 34 117
14 34 120
19 34 123
24 34 126
29 34 129
34 34 132
39 34 135
44 34 138
49 34 141
54 34 144
59 34 147
64 34 150
69 34 153
80 39 9
85 39 12
90 39 15
95 39 18
100 39 21
105 39 24
110 39 27
115 39 30
120 39 33
125 39 36
130 39 39
135 39 42
140 39 45
145 39 48
150 39 51
155 39 54
160 39 57
165 39 60
170 39 63
175 39 66
180 39 69
185 39 72
190 39 75
195 39 78
200 39 81
205 39 84
210 39 87
215 39 90
220 39 93
225 39 96
230 39 99
235 39 102
240 39 105
245 39 108
250 39 111
255 39 114
4 39 117
9 39 120
14 39 123
19 39 126
24 39 129
29 39 132
34 39 135
39 39 138
44 39 141
49 39 144
54 39 147
59 39 150
64 39 153
69 39 156
80 44 12
85 44 15
90 44 18
95 44 21
100 44 24
105 44 27
110 44 30
115 44 33
120 44 36
125 44 39
130 44 42
135 44 45
140 44 48
145 44 51
150 44 54
155 44 57
160 44 60
165 44 63
170 44 66
175 44 69
180 44 72
185 44 75
190 44 78
195 44 81
200 44 84
205 44 87
210 44 90
215 44 93
220 44 96
225 44 99
230 44 102
235 44 105
240 44 108
245 44 111
250 44 114
255 44 117
4 44 120
9 44 123
14 44 126
19 44 129
24 44 132
29 44 135
34 44 138
39 44 141
44 44 144
49 44 147
54 44 150
59 44 153
64 44 156
69 44 159
80 49 15
85 49 18
90 49 21
95 49 24
100 49 27
105 49 30
110 49 33
115 49 36
120 49 39
125 49 42
130 49 45
135 49 48
140 49 51
145 49 54
150 49 57
155 49 60
160 49 63
165 49 66
170 49 69
175 49 72
180 49 75
185 49 78
190 49 81
195 49 84
200 49 87
205 49 90
210 49 93
215 49 96
220 49 99
225 49 102
230 49 105
235 49 108
240 49 111
245 49 114
250 49 117
255 49 120
4 49 123
9 49 126
14 49 129
19 49 132
24 49 135
29 49 138
34 49 141
39 49 144
44 49 147
49 49 150
54 49 153
59 49 156
64 49 159
69 49 162
80 54 18
85 54 21
90 54 24
95 54 27
100 54 30
105 54 33
110 54 36
115 54 39
120 54 42
125 54 45
130 54 48
135 54 51
140 54 54
145 54 57
150 54 60
155 54 63
160 54 66
165 54 69
170 54 72
175 54 75
180 54 78
185 54 81
190 54 84
195 54 87
200 54 90
205 54 93
210 54 96
215 54 99
220 54 102
225 54 105
230 54 108
235 54 111
240 54 114
245 54 117
250 54 120
255 54 123
4 54 126
9 54 129
14 54 132
19 54 135
24 54 138
29 54 141
34 54 144
39 54 147
44 54 150
49 54 153
54 54 156
59 54 159
64 54 162
69 54 165
80 59 21
85 59 24
90 59 27
95 59 30
100 59 33
105 59 36
110 59 39
115 59 42
120 59 45
125 59 48
130 59 51
135 59 54
140 59 57
145 59 60
150 59 63
155 59 66
160 59 69
165 59 72
170 59 75
175 59 78
180 59 81
185 59 84
190 59 87
195 59 90
200 59 93
205 59 96
210 59 99
215 59 102
220 59 105
225 59 108
230 59 111
235 59 114
240 59 117
245 59 120
250 59 123
255 59 126
4 59 129
9 59 132
14 59 135
19 59 138
24 59 141
29 59 144
34 59 147
39 59 150
44 59 153
49 59 156
54 59 159
59 59 162
64 59 165
69 59 168
80 64 24
85 64 27
90 64 30
95 64 33
100 64 36
105 64 39
110 64 42
115 64 45
120 64 48
125 64 51
130 64 54
135 64 57
140 64 60
145 64 63
150 64 66
155 64 69
160 64 72
165 64 75
170 64 78
175 64 81
180 64 84
185 64 87
190 64 90
195 64 93
200 64 96
205 64 99
210 64 102
215 64 105
220 64 108
225 64 111
230 64 114
235 64 117
240 64 120
245 64 123
250 64 126
255 64 129
4 64 132
9 64 135
14 64 138
19 64 141
24 64 144
29 64 147
34 64 150
39 64 153
44 64 156
49 64 159
54 64 162
59 64 165
64 64 168
69 64 171
80 69 27
85 69 30
90 69 33
95 69 36
100 69 39
105 69 42
110 69 45
115 69 48
120 69 51
125 69 54
130 69 57
135 69 60
140 69 63
145 69 66
150 69 69
155 69 72
160 69 75
165 69 78
170 69 81
175 69 84
180 69 87
185 69 90
190 69 93
195 69 96
200 69 99
205 69 102
210 69 105
215 69 108
220 69 111
225 69 114
230 69 117
235 69 120
240 69 123
245 69 126
250 69 129
255 69 132
4 69 135
9 69 138
14 69 141
19 69 144
24 69 147
29 69 150
34 69 153
39 69 156
44 69 159
49 69 162
54 69 165
59 69 168
64 69 171
69 69 174
80 74 30
85 74 33
90 74 36
95 74 39
100 74 42
105 74 45
110 74 48
115 74 51
120 74 54
125 74 57
130 74 60
135 74 63
140 74 66
145 74 69
150 74 72
155 74 75
160 74 78
165 74 81
170 74 84
175 74 87
180 74 90
185 74 93
190 74 96
195 74 99
200 74 102
205 74 105
210 74 108
215 74 111
220 74 114
225 74 117
230 74 120
235 74 123
240 74 126
245 74 129
250 74 132
255 74 135
4 74 138
9 74 141
14 74 144
19 74 147
24 74 150
29 74 153
34 74 156
39 74 159
44 74 162
49 74 165
54 74 168
59 74 171
64 74 174
69 74 177
80 79 33
85 79 36
90 79 39
95 79 42
100 79 45
105 79 48
110 79 51
115 79 54
120 79 57
125 79 60
130 79 63
135 79 66
140 79 69
145 79 72
150 79 75
155 79 78
160 79 81
165 79 84
170 79 87
175 79 90
180 79 93
185 79 96
190 79 99
195 79 102
200 79 105
205 79 108
210 79 111
215 79 114
220 79 117
225 79 120
230 79 123
235 79 126
240 79 129
245 79 132
250 79 135
255 79 138
4 79 141
9 79 144
14 79 147
19 79 150
24 79 153
29 79 156
34 79 159
39 79 162
44 79 165
49 79 168
54 79 171
59 79 174
64 79 177
69 79 180
80 84 36
85 84 39
90 84 42
95 84 45
100 84 48
105 84 51
110 84 54
115 84 57
120 84 60
125 84 63
130 84 66
135 84 69
140 84 72
145 84 75
150 84 78
155 84 81
160 84 84
165 84 87
170 84 90
175 84 93
180 84 96
185 84 99
190 84 102
195 84 105
200 84 108
205 84 111
210 84 114
215 84 117
220 84 120
225 84 123
230 84 126
235 84 129
240 84 132
245 84 135
250 84 138
255 84 141
4 84 144
9 84 147
14 84 150
19 84 153
24 84 156
29 84 159
34 84 162
39 84 165
44 84 168
49 84 171
54 84 174
59 84 177
64 84 180
69 84 183
80 89 39
85 89 42
90 89 45
95 89 48
100 89 51
105 89 54
110 89 57
115 89 60
120 89 63
125 89 66
130 89 69
135 89 72
140 89 75
145 89 78
150 89 81
155 89 84
160 89 87
165 89 90
170 89 93
175 89 96
180 89 99
185 89 102
190 89 105
195 89 108
200 89 111
205 89 114
210 89 117
215 89 120
220 89 123
225 89 126
230 89 129
235 89 132
240 89 135
245 89 138
250 89 141
255 89 144
4 89 147
9 89 150
14 89 153
19 89 156
24 89 159
29 89 162
34 89 165
39 89 168
44 89 171
49 89 174
54 89 177
59 89 180
64 89 183
69 89 186
80 94 42
85 94 45
90 94 48
95 94 51
100 94 54
105 94 57
110 94 60
115 94 63
120 94 66
125 94 69
130 94 72
135 94 75
140 94 78
145 94 81
150 94 84
155 94 87
160 94 90
165 94 93
170 94 96
175 94 99
180 94 102
185 94 105
190 94 108
195 94 111
200 94 114
205 94 117
210 94 120
215 94 123
220 94 126
225 94 129
230 94 132
235 94 135
240 94 138
245 94 141
250 94 144
255 94 147
4 94 150
9 94 153
14 94 156
19 94 159
24 94 162
29 94 165
34 94 168
39 94 171
44 94 174
49 94 177
54 94 180
59 94 183
64 94 186
69 94 189
80 99 45
85 99 48
90 99 51
95 99 54
100 99 57
105 99 60
110 99 63
115 99 66
120 99 69
125 99 72
130 99 75
135 99 78
140 99 81
145 99 84
150 99 87
155 99 90
160 99 93
165 99 96
170 99 99
175 99 102
180 99 105
185 99 108
190 99 111
195 99 114
200 99 117
205 99 120
210 99 123
215 99 126
220 99 129
225 99 132
230 99 135
235 99 138
240 99 141
245 99 144
250 99 147
255 99 150
4 99 153
9 99 156
14 99 159
19 99 162
24 99 165
29 99 168
34 99 171
39 99 174
44 99 177
49 99 180
54 99 183
59 99 186
64 99 189
69 99 192
80 104 48
85 104 51
90 104 54
95 104 57
100 104 60
105 104 63
110 104 66
115 104 69
120 104 72
125 104 75
130 104 78
135 104 81
140 104 84
145 104 87
150 104 90
155 104 93
160 104 96
165 104 99
170 104 102
175 104 105
180 104 108
185 104 111
190 104 114
195 104 117
200 104 120
205 104 123
210 104 126
215 104 129
220 104 132
225 104 135
230 104 138
235 104 141
240 104 144
245 104 147
250 104 150
255 104 153
4 104 156
9 104 159
14 104 162
19 104 165
24 104 168
29 104 171
34 104 174
39 104 177
44 104 180
49 104 183
54 104 186
59 104 189
64 104 192
69 104 195
80 109 51
85 109 54
90 109 57
95 109 60
100 109 63
105 109 66
110 109 69
115 109 72
120 109 75
125 109 78
130 109 81
135 109 84
140 109 87
145 109 90
150 109 93
155 109 96
160 109 99
165 109 102
170 109 105
175 109 108
180 109 111
185 109 114
190 109 117
195 109 120
200 109 123
205 109 126
210 109 129
215 109 132
220 109 135
225 109 138
230 109 141
235 109 144
240 109 147
245 109 150
250 109 153
255 109 156
4 109 159
9 109 162
14 109 165
19 109 168
24 109 171
29 109 174
34 109 177
39 109 180
44 109 183
49 109 186
54 109 189
59 109 192
64 109 195
69 109 198
