P3
50 50
255
20 30 40
25 30 43
30 30 46
35 30 49
40 30 52
45 30 55
50 30 58
55 30 61
60 30 64
65 30 67
70 30 70
75 30 73
80 30 76
85 30 79
90 30 82
95 30 85
100 30 88
105 30 91
110 30 94
115 30 97
120 30 100
125 30 103
130 30 106
135 30 109
140 30 112
145 30 115
150 30 118
155 30 121
160 30 124
165 30 127
170 30 130
175 30 133
180 30 136
185 30 139
190 30 142
195 30 145
200 30 148
205 30 151
210 30 154
215 30 157
220 30 160
225 30 163
230 30 166
235 30 169
240 30 172
245 30 175
250 30 178
255 30 181
4 30 184
9 30 187
20 35 43
25 35 46
30 35 49
35 35 52
40 35 55
45 35 58
50 35 61
55 35 64
60 35 67
65 35 70
70 35 73
75 35 76
80 35 79
85 35 82
90 35 85
95 35 88
100 35 91
105 35 94
110 35 97
115 35 100
120 35 103
125 35 106
130 35 109
135 35 112
140 35 115
145 35 118
150 35 121
155 35 124
160 35 127
165 35 130
170 35 133
175 35 136
180 35 139
185 35 142
190 35 145
195 35 148
200 35 151
205 35 154
210 35 157
215 35 160
220 35 163
225 35 166
230 35 169
235 35 172
240 35 175
245 35 178
250 35 181
255 35 184
4 35 187
9 35 190
20 40 46
25 40 49
30 40 52
35 40 55
40 40 58
45 40 61
50 40 64
55 40 67
60 40 70
65 40 73
70 40 76
75 40 79
80 40 82
85 40 85
90 40 88
95 40 91
100 40 94
105 40 97
110 40 100
115 40 103
120 40 106
125 40 109
130 40 112
135 40 115
140 40 118
145 40 121
150 40 124
155 40 127
160 40 130
165 40 133
170 40 136
175 40 139
180 40 142
185 40 145
190 40 148
195 40 151
200 40 154
205 40 157
210 40 160
215 40 163
220 40 166
225 40 169
230 40 172
235 40 175
240 40 178
245 40 181
250 40 184
255 40 187
4 40 190
9 40 193
20 45 49
25 45 52
30 45 55
35 45 58
40 45 61
45 45 64
50 45 67
55 45 70
60 45 73
65 45 76
70 45 79
75 45 82
80 45 85
85 45 88
90 45 91
95 45 94
100 45 97
105 45 100
110 45 103
115 45 106
120 45 109
125 45 112
130 45 115
135 45 118
140 45 121
145 45 124
150 45 127
155 45 130
160 45 133
165 45 136
170 45 139
175 45 142
180 45 145
185 45 148
190 45 151
195 45 154
200 45 157
205 45 160
210 45 163
215 45 166
220 45 169
225 45 172
230 45 175
235 45 178
240 45 181
245 45 184
250 45 187
255 45 190
4 45 193
9 45 196
20 50 52
25 50 55
30 50 58
35 50 61
40 50 64
45 50 67
50 50 70
55 50 73
60 50 76
65 50 79
70 50 82
75 50 85
80 50 88
85 50 91
90 50 94
95 50 97
100 50 100
105 50 103
110 50 106
115 50 109
120 50 112
125 50 115
130 50 118
135 50 121
140 50 124
145 50 127
150 50 130
155 50 133
160 50 136
165 50 139
170 50 142
175 50 145
180 50 148
185 50 151
190 50 154
195 50 157
200 50 160
205 50 163
210 50 166
215 50 169
220 50 172
225 50 175
230 50 178
235 50 181
240 50 184
245 50 187
250 50 190
255 50 193
4 50 196
9 50 199
20 55 55
25 55 58
30 55 61
35 55 64
40 55 67
45 55 70
50 55 73
55 55 76
60 55 79
65 55 82
70 55 85
75 55 88
80 55 91
85 55 94
90 55 97
95 55 100
100 55 103
105 55 106
110 55 109
115 55 112
120 55 115
125 55 118
130 55 121
135 55 124
140 55 127
145 55 130
150 55 133
155 55 136
160 55 139
165 55 142
170 55 145
175 55 148
180 55 151
185 55 154
190 55 157
195 55 160
200 55 163
205 55 166
210 55 169
215 55 172
220 55 175
225 55 178
230 55 181
235 55 184
240 55 187
245 55 190
250 55 193
255 55 196
4 55 199
9 55 202
20 60 58
25 60 61
30 60 64
35 60 67
40 60 70
45 60 73
50 60 76
55 60 79
60 60 82
65 60 85
70 60 88
75 60 91
80 60 94
85 60 97
90 60 100
95 60 103
100 60 106
105 60 109
110 60 112
115 60 115
120 60 118
125 60 121
130 60 124
135 60 127
140 60 130
145 60 133
150 60 136
155 60 139
160 60 142
165 60 145
170 60 148
175 60 151
180 60 154
185 60 157
190 60 160
195 60 163
200 60 166
205 60 169
210 60 172
215 60 175
220 60 178
225 60 181
230 60 184
235 60 187
240 60 190
245 60 193
250 60 196
255 60 199
4 60 202
9 60 205
20 65 61
25 65 64
30 65 67
35 65 70
40 65 73
45 65 76
50 65 79
55 65 82
60 65 85
65 65 88
70 65 91
75 65 94
80 65 97
85 65 100
90 65 103
95 65 106
100 65 109
105 65 112
110 65 115
115 65 118
120 65 121
125 65 124
130 65 127
135 65 130
140 65 133
145 65 136
150 65 139
155 65 142
160 65 145
165 65 148
170 65 151
175 65 154
180 65 157
185 65 160
190 65 163
195 65 166
200 65 169
205 65 172
210 65 175
215 65 178
220 65 181
225 65 184
230 65 187
235 65 190
240 65 193
245 65 196
250 65 199
255 65 202
4 65 205
9 65 208
20 70 64
25 70 67
30 70 70
35 70 73
40 70 76
45 70 79
50 70 82
55 70 85
60 70 88
65 70 91
70 70 94
75 70 97
80 70 100
85 70 103
90 70 106
95 70 109
100 70 112
105 70 115
110 70 118
115 70 121
120 70 124
125 70 127
130 70 130
135 70 133
140 70 136
145 70 139
150 70 142
155 70 145
160 70 148
165 70 151
170 70 154
175 70 157
180 70 160
185 70 163
190 70 166
195 70 169
200 70 172
205 70 175
210 70 178
215 70 181
220 70 184
225 70 187
230 70 190
235 70 193
240 70 196
245 70 199
250 70 202
255 70 205
4 70 208
9 70 211
20 75 67
25 75 70
30 75 73
35 75 76
40 75 79
45 75 82
50 75 85
55 75 88
60 75 91
65 75 94
70 75 97
75 75 100
80 75 103
85 75 106
90 75 109
95 75 112
100 75 115
105 75 118
110 75 121
115 75 124
120 75 127
125 75 130
130 75 133
135 75 136
140 75 139
145 75 142
150 75 145
155 75 148
160 75 151
165 75 154
170 75 157
175 75 160
180 75 163
185 75 166
190 75 169
195 75 172
200 75 175
205 75 178
210 75 181
215 75 184
220 75 187
225 75 190
230 75 193
235 75 196
240 75 199
245 75 202
250 75 205
255 75 208
4 75 211
9 75 214
20 80 70
25 80 73
30 80 76
35 80 79
40 80 82
45 80 85
50 80 88
55 80 91
60 80 94
65 80 97
70 80 100
75 80 103
80 80 106
85 80 109
90 80 112
95 80 115
100 80 118
105 80 121
110 80 124
115 80 127
120 80 130
125 80 133
130 80 136
135 80 139
140 80 142
145 80 145
150 80 148
155 80 151
160 80 154
165 80 157
170 80 160
175 80 163
180 80 166
185 80 169
190 80 172
195 80 175
200 80 178
205 80 181
210 80 184
215 80 187
220 80 190
225 80 193
230 80 196
235 80 199
240 80 202
245 80 205
250 80 208
255 80 211
4 80 214
9 80 217
20 85 73
25 85 76
30 85 79
35 85 82
40 85 85
45 85 88
50 85 91
55 85 94
60 85 97
65 85 100
70 85 103
75 85 106
80 85 109
85 85 112
90 85 115
95 85 118
100 85 121
105 85 124
110 85 127
115 85 130
120 85 133
125 85 136
130 85 139
135 85 142
140 85 145
145 85 148
150 85 151
155 85 154
160 85 157
165 85 160
170 85 163
175 85 166
180 85 169
185 85 172
190 85 175
195 85 178
200 85 181
205 85 184
210 85 187
215 85 190
220 85 193
225 85 196
230 85 199
235 85 202
240 85 205
245 85 208
250 85 211
255 85 214
4 85 217
9 85 220
20 90 76
25 90 79
30 90 82
35 90 85
40 90 88
45 90 91
50 90 94
55 90 97
60 90 100
65 90 103
70 90 106
75 90 109
80 90 112
85 90 115
90 90 118
95 90 121
100 90 124
105 90 127
110 90 130
115 90 133
120 90 136
125 90 139
130 90 142
135 90 145
140 90 148
145 90 151
150 90 154
155 90 157
160 90 160
165 90 163
170 90 166
175 90 169
180 90 172
185 90 175
190 90 178
195 90 181
200 90 184
205 90 187
210 90 190
215 90 193
220 90 196
225 90 199
230 90 202
235 90 205
240 90 208
245 90 211
250 90 214
255 90 217
4 90 220
9 90 223
20 95 79
25 95 82
30 95 85
35 95 88
40 95 91
45 95 94
50 95 97
55 95 100
60 95 103
65 95 106
70 95 109
75 95 112
80 95 115
85 95 118
90 95 121
95 95 124
100 95 127
105 95 130
110 95 133
115 95 136
120 95 139
125 95 142
130 95 145
135 95 148
140 95 151
145 95 154
150 95 157
155 95 160
160 95 163
165 95 166
170 95 169
175 95 172
180 95 175
185 95 178
190 95 181
195 95 184
200 95 187
205 95 190
210 95 193
215 95 196
220 95 199
225 95 202
230 95 205
235 95 208
240 95 211
245 95 214
250 95 217
255 95 220
4 95 223
9 95 226
20 100 82
25 100 85
30 100 88
35 100 91
40 100 94
45 100 97
50 100 100
55 100 103
60 100 106
65 100 109
70 100 112
75 100 115
80 100 118
85 100 121
90 100 124
95 100 127
100 100 130
105 100 133
110 100 136
115 100 139
120 100 142
125 100 145
130 100 148
135 100 151
140 100 154
145 100 157
150 100 160
155 100 163
160 100 166
165 100 169
170 100 172
175 100 175
180 100 178
185 100 181
190 100 184
195 100 187
200 100 190
205 100 193
210 100 196
215 100 199
220 100 202
225 100 205
230 100 208
235 100 211
240 100 214
245 100 217
250 100 220
255 100 223
4 100 226
9 100 229
20 105 85
25 105 88
30 105 91
35 105 94
40 105 97
45 105 100
50 105 103
55 105 106
60 105 109
65 105 112
70 105 115
75 105 118
80 105 121
85 105 124
90 105 127
95 105 130
100 105 133
105 105 136
110 105 139
115 105 142
120 105 145
125 105 148
130 105 151
135 105 154
140 105 157
145 105 160
150 105 163
155 105 166
160 105 169
165 105 172
170 105 175
175 105 178
180 105 181
185 105 184
190 105 187
195 105 190
200 105 193
205 105 196
210 105 199
215 105 202
220 105 205
225 105 208
230 105 211
235 105 214
240 105 217
245 105 220
250 105 223
255 105 226
4 105 229
9 105 232
20 110 88
25 110 91
30 110 94
35 110 97
40 110 100
45 110 103
50 110 106
55 110 109
60 110 112
65 110 115
70 110 118
75 110 121
80 110 124
85 110 127
90 110 130
95 110 133
100 110 136
105 110 139
110 110 142
115 110 145
120 110 148
125 110 151
130 110 154
135 110 157
140 110 160
145 110 163
150 110 166
155 110 169
160 110 172
165 110 175
170 110 178
175 110 181
180 110 184
185 110 187
190 110 190
195 110 193
200 110 196
205 110 199
210 110 202
215 110 205
220 110 208
225 110 211
230 110 214
235 110 217
240 110 220
245 110 223
250 110 226
255 110 229
4 110 232
9 110 235
20 115 91
25 115 94
30 115 97
35 115 100
40 115 103
45 115 106
50 115 109
55 115 112
60 115 115
65 115 118
70 115 121
75 115 124
80 115 127
85 115 130
90 115 133
95 115 136
100 115 139
105 115 142
110 115 145
115 115 148
120 115 151
125 115 154
130 115 157
135 115 160
140 115 163
145 115 166
150 115 169
155 115 172
160 115 175
165 115 178
170 115 181
175 115 184
180 115 187
185 115 190
190 115 193
195 115 196
200 115 199
205 115 202
210 115 205
215 115 208
220 115 211
225 115 214
230 115 217
235 115 220
240 115 223
245 115 226
250 115 229
255 115 232
4 115 235
9 115 238
20 120 94
25 120 97
30 120 100
35 120 103
40 120 106
45 120 109
50 120 112
55 120 115
60 120 118
65 120 121
70 120 124
75 120 127
80 120 130
85 120 133
90 120 136
95 120 139
100 120 142
105 120 145
110 120 148
115 120 151
120 120 154
125 120 157
130 120 160
135 120 163
140 120 166
145 120 169
150 120 172
155 120 175
160 120 178
165 120 181
170 120 184
175 120 187
180 120 190
185 120 193
190 120 196
195 120 199
200 120 202
205 120 205
210 120 208
215 120 211
220 120 214
225 120 217
230 120 220
235 120 223
240 120 226
245 120 229
250 120 232
255 120 235
4 120 238
9 120 241
20 125 97
25 125 100
30 125 103
35 125 106
40 125 109
45 125 112
50 125 115
55 125 118
60 125 121
65 125 124
70 125 127
75 125 130
80 125 133
85 125 136
90 125 139
95 125 142
100 125 145
105 125 148
110 125 151
115 125 154
120 125 157
125 125 160
130 125 163
135 125 166
140 125 169
145 125 172
150 125 175
155 125 178
160 125 181
165 125 184
170 125 187
175 125 190
180 125 193
185 125 196
190 125 199
195 125 202
200 125 205
205 125 208
210 125 211
215 125 214
220 125 217
225 125 220
230 125 223
235 125 226
240 125 229
245 125 232
250 125 235
255 125 238
4 125 241
9 125 244
20 130 100
25 130 103
30 130 106
35 130 109
40 130 112
45 130 115
50 130 118
55 130 121
60 130 124
65 130 127
70 130 130
75 130 133
80 130 136
85 130 139
90 130 142
95 130 145
100 130 148
105 130 151
110 130 154
115 130 157
120 130 160
125 130 163
130 130 166
135 130 169
140 130 172
145 130 175
150 130 178
155 130 181
160 130 184
165 130 187
170 130 190
175 130 193
180 130 196
185 130 199
190 130 202
195 130 205
200 130 208
205 130 211
210 130 214
215 130 217
220 130 220
225 130 223
230 130 226
235 130 229
240 130 232
245 130 235
250 130 238
255 130 241
4 130 244
9 130 247
20 135 103
25 135 106
30 135 109
35 135 112
40 135 115
45 135 118
50 135 121
55 135 124
60 135 127
65 135 130
70 135 133
75 135 136
80 135 139
85 135 142
90 135 145
95 135 148
100 135 151
105 135 154
110 135 157
115 135 160
120 135 163
125 135 166
130 135 169
135 135 172
140 135 175
145 135 178
150 135 181
155 135 184
160 135 187
165 135 190
170 135 193
175 135 196
180 135 199
185 135 202
190 135 205
195 135 208
200 135 211
205 135 214
210 135 217
215 135 220
220 135 223
225 135 226
230 135 229
235 135 232
240 135 235
245 135 238
250 135 241
255 135 244
4 135 247
9 135 250
20 140 106
25 140 109
30 140 112
35 140 115
40 140 118
45 140 121
50 140 124
55 140 127
60 140 130
65 140 133
70 140 136
75 140 139
80 140 142
85 140 145
90 140 148
95 140 151
100 140 154
105 140 157
110 140 160
115 140 163
120 140 166
125 140 169
130 140 172
135 140 175
140 140 178
145 140 181
150 140 184
155 140 187
160 140 190
165 140 193
170 140 196
175 140 199
180 140 202
185 140 205
190 140 208
195 140 211
200 140 214
205 140 217
210 140 220
215 140 223
220 140 226
225 140 229
230 140 232
235 140 235
240 140 238
245 140 241
250 140 244
255 140 247
4 140 250
9 140 253
20 145 109
25 145 112
30 145 115
35 145 118
40 145 121
45 145 124
50 145 127
55 145 130
60 145 133
65 145 136
70 145 139
75 145 142
80 145 145
85 145 148
90 145 151
95 145 154
100 145 157
105 145 160
110 145 163
115 145 166
120 145 169
125 145 172
130 145 175
135 145 178
140 145 181
145 145 184
150 145 187
155 145 190
160 145 193
165 145 196
170 145 199
175 145 202
180 145 205
185 145 208
190 145 211
195 145 214
200 145 217
205 145 220
210 145 223
215 145 226
220 145 229
225 145 232
230 145 235
235 145 238
240 145 241
245 145 244
250 145 247
255 145 250
4 145 253
9 145 0
20 150 112
25 150 115
30 150 118
35 150 121
40 150 124
45 150 127
50 150 130
55 150 133
60 150 136
65 150 139
70 150 142
75 150 145
80 150 148
85 150 151
90 150 154
95 150 157
100 150 160
105 150 163
110 150 166
115 150 169
120 150 172
125 150 175
130 150 178
135 150 181
140 150 184
145 150 187
150 150 190
155 150 193
160 150 196
165 150 199
170 150 202
175 150 205
180 150 208
185 150 211
190 150 214
195 150 217
200 150 220
205 150 223
210 150 226
215 150 229
220 150 232
225 150 235
230 150 238
235 150 241
240 150 244
245 150 247
250 150 250
255 150 253
4 150 0
9 150 3
20 155 115
25 155 118
30 155 121
35 155 124
40 155 127
45 155 130
50 155 133
55 155 136
60 155 139
65 155 142
70 155 145
75 155 148
80 155 151
85 155 154
90 155 157
95 155 160
100 155 163
105 155 166
110 155 169
115 155 172
120 155 175
125 155 178
130 155 181
135 155 184
140 155 187
145 155 190
150 155 193
155 155 196
160 155 199
165 155 202
170 155 205
175 155 208
180 155 211
185 155 214
190 155 217
195 155 220
200 155 223
205 155 226
210 155 229
215 155 232
220 155 235
225 155 238
230 155 241
235 155 244
240 155 247
245 155 250
250 155 253
255 155 0
4 155 3
9 155 6
20 160 118
25 160 121
30 160 124
35 160 127
40 160 130
45 160 133
50 160 136
55 160 139
60 160 142
65 160 145
70 160 148
75 160 151
80 160 154
85 160 157
90 160 160
95 160 163
100 160 166
105 160 169
110 160 172
115 160 175
120 160 178
125 160 181
130 160 184
135 160 187
140 160 190
145 160 193
150 160 196
155 160 199
160 160 202
165 160 205
170 160 208
175 160 211
180 160 214
185 160 217
190 160 220
195 160 223
200 160 226
205 160 229
210 160 232
215 160 235
220 160 238
225 160 241
230 160 244
235 160 247
240 160 250
245 160 253
250 160 0
255 160 3
4 160 6
9 160 9
20 165 121
25 165 124
30 165 127
35 165 130
40 165 133
45 165 136
50 165 139
55 165 142
60 165 145
65 165 148
70 165 151
75 165 154
80 165 157
85 165 160
90 165 163
95 165 166
100 165 169
105 165 172
110 165 175
115 165 178
120 165 181
125 165 184
130 165 187
135 165 190
140 165 193
145 165 196
150 165 199
155 165 202
160 165 205
165 165 208
170 165 211
175 165 214
180 165 217
185 165 220
190 165 223
195 165 226
200 165 229
205 165 232
210 165 235
215 165 238
220 165 241
225 165 244
230 165 247
235 165 250
240 165 253
245 165 0
250 165 3
255 165 6
4 165 9
9 165 12
20 170 124
25 170 127
30 170 130
35 170 133
40 170 136
45 170 139
50 170 142
55 170 145
60 170 148
65 170 151
70 170 154
75 170 157
80 170 160
85 170 163
90 170 166
95 170 169
100 170 172
105 170 175
110 170 178
115 170 181
120 170 184
125 170 187
130 170 190
135 170 193
140 170 196
145 170 199
150 170 202
155 170 205
160 170 208
165 170 211
170 170 214
175 170 217
180 170 220
185 170 223
190 170 226
195 170 229
200 170 232
205 170 235
210 170 238
215 170 241
220 170 244
225 170 247
230 170 250
235 170 253
240 170 0
245 170 3
250 170 6
255 170 9
4 170 12
9 170 15
20 175 127
25 175 130
30 175 133
35 175 136
40 175 139
45 175 142
50 175 145
55 175 148
60 175 151
65 175 154
70 175 157
75 175 160
80 175 163
85 175 166
90 175 169
95 175 172
100 175 175
105 175 178
110 175 181
115 175 184
120 175 187
125 175 190
130 175 193
135 175 196
140 175 199
145 175 202
150 175 205
155 175 208
160 175 211
165 175 214
170 175 217
175 175 220
180 175 223
185 175 226
190 175 229
195 175 232
200 175 235
205 175 238
210 175 241
215 175 244
220 175 247
225 175 250
230 175 253
235 175 0
240 175 3
245 175 6
250 175 9
255 175 12
4 175 15
9 175 18
20 180 130
25 180 133
30 180 136
35 180 139
40 180 142
45 180 145
50 180 148
55 180 151
60 180 154
65 180 157
70 180 160
75 180 163
80 180 166
85 180 169
90 180 172
95 180 175
100 180 178
105 180 181
110 180 184
115 180 187
120 180 190
125 180 193
130 180 196
135 180 199
140 180 202
145 180 205
150 180 208
155 180 211
160 180 214
165 180 217
170 180 220
175 180 223
180 180 226
185 180 229
190 180 232
195 180 235
200 180 238
205 180 241
210 180 244
215 180 247
220 180 250
225 180 253
230 180 0
235 180 3
240 180 6
245 180 9
250 180 12
255 180 15
4 180 18
9 180 21
20 185 133
25 185 136
30 185 139
35 185 142
40 185 145
45 185 148
50 185 151
55 185 154
60 185 157
65 185 160
70 185 163
75 185 166
80 185 169
85 185 172
90 185 175
95 185 178
100 185 181
105 185 184
110 185 187
115 185 190
120 185 193
125 185 196
130 185 199
135 185 202
140 185 205
145 185 208
150 185 211
155 185 214
160 185 217
165 185 220
170 185 223
175 185 226
180 185 229
185 185 232
190 185 235
195 185 238
200 185 241
205 185 244
210 185 247
215 185 250
220 185 253
225 185 0
230 185 3
235 185 6
240 185 9
245 185 12
250 185 15
255 185 18
4 185 21
9 185 24
20 190 136
25 190 139
30 190 142
35 190 145
40 190 148
45 190 151
50 190 154
55 190 157
60 190 160
65 190 163
70 190 166
75 190 169
80 190 172
85 190 175
90 190 178
95 190 181
100 190 184
105 190 187
110 190 190
115 190 193
120 190 196
125 190 199
130 190 202
135 190 205
140 190 208
145 190 211
150 190 214
155 190 217
160 190 220
165 190 223
170 190 226
175 190 229
180 190 232
185 190 235
190 190 238
195 190 241
200 190 244
205 190 247
210 190 250
215 190 253
220 190 0
225 190 3
230 190 6
235 190 9
240 190 12
245 190 15
250 190 18
255 190 21
4 190 24
9 190 27
20 195 139
25 195 142
30 195 145
35 195 148
40 195 151
45 195 154
50 195 157
55 195 160
60 195 163
65 195 166
70 195 169
75 195 172
80 195 175
85 195 178
90 195 181
95 195 184
100 195 187
105 195 190
110 195 193
115 195 196
120 195 199
125 195 202
130 195 205
135 195 208
140 195 211
145 195 214
150 195 217
155 195 220
160 195 223
165 195 226
170 195 229
175 195 232
180 195 235
185 195 238
190 195 241
195 195 244
200 195 247
205 195 250
210 195 253
215 195 0
220 195 3
225 195 6
230 195 9
235 195 12
240 195 15
245 195 18
250 195 21
255 195 24
4 195 27
9 195 30
20 200 142
25 200 145
30 200 148
35 200 151
40 200 154
45 200 157
50 200 160
55 200 163
60 200 166
65 200 169
70 200 172
75 200 175
80 200 178
85 200 181
90 200 184
95 200 187
100 200 190
105 200 193
110 200 196
115 200 199
120 200 202
125 200 205
130 200 208
135 200 211
140 200 214
145 200 217
150 200 220
155 200 223
160 200 226
165 200 229
170 200 232
175 200 235
180 200 238
185 200 241
190 200 244
195 200 247
200 200 250
205 200 253
210 200 0
215 200 3
220 200 6
225 200 9
230 200 12
235 200 15
240 200 18
245 200 21
250 200 24
255 200 27
4 200 30
9 200 33
20 205 145
25 205 148
30 205 151
35 205 154
40 205 157
45 205 160
50 205 163
55 205 166
60 205 169
65 205 172
70 205 175
75 205 178
80 205 181
85 205 184
90 205 187
95 205 190
100 205 193
105 205 196
110 205 199
115 205 202
120 205 205
125 205 208
130 205 211
135 205 214
140 205 217
145 205 220
150 205 223
155 205 226
160 205 229
165 205 232
170 205 235
175 205 238
180 205 241
185 205 244
190 205 247
195 205 250
200 205 253
205 205 0
210 205 3
215 205 6
220 205 9
225 205 12
230 205 15
235 205 18
240 205 21
245 205 24
250 205 27
255 205 30
4 205 33
9 205 36
20 210 148
25 210 151
30 210 154
35 210 157
40 210 160
45 210 163
50 210 166
55 210 169
60 210 172
65 210 175
70 210 178
75 210 181
80 210 184
85 210 187
90 210 190
95 210 193
100 210 196
105 210 199
110 210 202
115 210 205
120 210 208
125 210 211
130 210 214
135 210 217
140 210 220
145 210 223
150 210 226
155 210 229
160 210 232
165 210 235
170 210 238
175 210 241
180 210 244
185 210 247
190 210 250
195 210 253
200 210 0
205 210 3
210 210 6
215 210 9
220 210 12
225 210 15
230 210 18
235 210 21
240 210 24
245 210 27
250 210 30
255 210 33
4 210 36
9 210 39
20 215 151
25 215 154
30 215 157
35 215 160
40 215 163
45 215 166
50 215 169
55 215 172
60 215 175
65 215 178
70 215 181
75 215 184
80 215 187
85 215 190
90 215 193
95 215 196
100 215 199
105 215 202
110 215 205
115 215 208
120 215 211
125 215 214
130 215 217
135 215 220
140 215 223
145 215 226
150 215 229
155 215 232
160 215 235
165 215 238
170 215 241
175 215 244
180 215 247
185 215 250
190 215 253
195 215 0
200 215 3
205 215 6
210 215 9
215 215 12
220 215 15
225 215 18
230 215 21
235 215 24
240 215 27
245 215 30
250 215 33
255 215 36
4 215 39
9 215 42
20 220 154
25 220 157
30 220 160
35 220 163
40 220 166
45 220 169
50 220 172
55 220 175
60 220 178
65 220 181
70 220 184
75 220 187
80 220 190
85 220 193
90 220 196
95 220 199
100 220 202
105 220 205
110 220 208
115 220 211
120 220 214
125 220 217
130 220 220
135 220 223
140 220 226
145 220 229
150 220 232
155 220 235
160 220 238
165 220 241
170 220 244
175 220 247
180 220 250
185 220 253
190 220 0
195 220 3
200 220 6
205 220 9
210 220 12
215 220 15
220 220 18
225 220 21
230 220 24
235 220 27
240 220 30
245 220 33
250 220 36
255 220 39
4 220 42
9 220 45
20 225 157
25 225 160
30 225 163
35 225 166
40 225 169
45 225 172
50 225 175
55 225 178
60 225 181
65 225 184
70 225 187
75 225 190
80 225 193
85 225 196
90 225 199
95 225 202
100 225 205
105 225 208
110 225 211
115 225 214
120 225 217
125 225 220
130 225 223
135 225 226
140 225 229
145 225 232
150 225 235
155 225 238
160 225 241
165 225 244
170 225 247
175 225 250
180 225 253
185 225 0
190 225 3
195 225 6
200 225 9
205 225 12
210 225 15
215 225 18
220 225 21
225 225 24
230 225 27
235 225 30
240 225 33
245 225 36
250 225 39
255 225 42
4 225 45
9 225 48
20 230 160
25 230 163
30 230 166
35 230 169
40 230 172
45 230 175
50 230 178
55 230 181
60 230 184
65 230 187
70 230 190
75 230 193
80 230 196
85 230 199
90 230 202
95 230 205
100 230 208
105 230 211
110 230 214
115 230 217
120 230 220
125 230 223
130 230 226
135 230 229
140 230 232
145 230 235
150 230 238
155 230 241
160 230 244
165 230 247
170 230 250
175 230 253
180 230 0
185 230 3
190 230 6
195 230 9
200 230 12
205 230 15
210 230 18
215 230 21
220 230 24
225 230 27
230 230 30
235 230 33
240 230 36
245 230 39
250 230 42
255 230 45
4 230 48
9 230 51
20 235 163
25 235 166
30 235 169
35 235 172
40 235 175
45 235 178
50 235 181
55 235 184
60 235 187
65 235 190
70 235 193
75 235 196
80 235 199
85 235 202
90 235 205
95 235 208
100 235 211
105 235 214
110 235 217
115 235 220
120 235 223
125 235 226
130 235 229
135 235 232
140 235 235
145 235 238
150 235 241
155 235 244
160 235 247
165 235 250
170 235 253
175 235 0
180 235 3
185 235 6
190 235 9
195 235 12
200 235 15
205 235 18
210 235 21
215 235 24
220 235 27
225 235 30
230 235 33
235 235 36
240 235 39
245 235 42
250 235 45
255 235 48
4 235 51
9 235 54
20 240 166
25 240 169
30 240 172
35 240 175
40 240 178
45 240 181
50 240 184
55 240 187
60 240 190
65 240 193
70 240 196
75 240 199
80 240 202
85 240 205
90 240 208
95 240 211
100 240 214
105 240 217
110 240 220
115 240 223
120 240 226
125 240 229
130 240 232
135 240 235
140 240 238
145 240 241
150 240 244
155 240 247
160 240 250
165 240 253
170 240 0
175 240 3
180 240 6
185 240 9
190 240 12
195 240 15
200 240 18
205 240 21
210 240 24
215 240 27
220 240 30
225 240 33
230 240 36
235 240 39
240 240 42
245 240 45
250 240 48
255 240 51
4 240 54
9 240 57
20 245 169
25 245 172
30 245 175
35 245 178
40 245 181
45 245 184
50 245 187
55 245 190
60 245 193
65 245 196
70 245 199
75 245 202
80 245 205
85 245 208
90 245 211
95 245 214
100 245 217
105 245 220
110 245 223
115 245 226
120 245 229
125 245 232
130 245 235
135 245 238
140 245 241
145 245 244
150 245 247
155 245 250
160 245 253
165 245 0
170 245 3
175 245 6
180 245 9
185 245 12
190 245 15
195 245 18
200 245 21
205 245 24
210 245 27
215 245 30
220 245 33
225 245 36
230 245 39
235 245 42
240 245 45
245 245 48
250 245 51
255 245 54
4 245 57
9 245 60
20 250 172
25 250 175
30 250 178
35 250 181
40 250 184
45 250 187
50 250 190
55 250 193
60 250 196
65 250 199
70 250 202
75 250 205
80 250 208
85 250 211
90 250 214
95 250 217
100 250 220
105 250 223
110 250 226
115 250 229
120 250 232
125 250 235
130 250 238
135 250 241
140 250 244
145 250 247
150 250 250
155 250 253
160 250 0
165 250 3
170 250 6
175 250 9
180 250 12
185 250 15
190 250 18
195 250 21
200 250 24
205 250 27
210 250 30
215 250 33
220 250 36
225 250 39
230 250 42
235 250 45
240 250 48
245 250 51
250 250 54
255 250 57
4 250 60
9 250 63
20 255 175
25 255 178
30 255 181
35 255 184
40 255 187
45 255 190
50 255 193
55 255 196
60 255 199
65 255 202
70 255 205
75 255 208
80 255 211
85 255 214
90 255 217
95 255 220
100 255 223
105 255 226
110 255 229
115 255 232
120 255 235
125 255 238
130 255 241
135 255 244
140 255 247
145 255 250
150 255 253
155 255 0
160 255 3
165 255 6
170 255 9
175 255 12
180 255 15
185 255 18
190 255 21
195 255 24
200 255 27
205 255 30
210 255 33
215 255 36
220 255 39
225 255 42
230 255 45
235 255 48
240 255 51
245 255 54
250 255 57
255 255 60
4 255 63
9 255 66
20 4 178
25 4 181
30 4 184
35 4 187
40 4 190
45 4 193
50 4 196
55 4 199
60 4 202
65 4 205
70 4 208
75 4 211
80 4 214
85 4 217
90 4 220
95 4 223
100 4 226
105 4 229
110 4 232
115 4 235
120 4 238
125 4 241
130 4 244
135 4 247
140 4 250
145 4 253
150 4 0
155 4 3
160 4 6
165 4 9
170 4 12
175 4 15
180 4 18
185 4 21
190 4 24
195 4 27
200 4 30
205 4 33
210 4 36
215 4 39
220 4 42
225 4 45
230 4 48
235 4 51
240 4 54
245 4 57
250 4 60
255 4 63
4 4 66
9 4 69
20 9 181
25 9 184
30 9 187
35 9 190
40 9 193
45 9 196
50 9 199
55 9 202
60 9 205
65 9 208
70 9 211
75 9 214
80 9 217
85 9 220
90 9 223
95 9 226
100 9 229
105 9 232
110 9 235
115 9 238
120 9 241
125 9 244
130 9 247
135 9 250
140 9 253
145 9 0
150 9 3
155 9 6
160 9 9
165 9 12
170 9 15
175 9 18
180 9 21
185 9 24
190 9 27
195 9 30
200 9 33
205 9 36
210 9 39
215 9 42
220 9 45
225 9 48
230 9 51
235 9 54
240 9 57
245 9 60
250 9 63
255 9 66
4 9 69
9 9 72
20 14 184
25 14 187
30 14 190
35 14 193
40 14 196
45 14 199
50 14 202
55 14 205
60 14 208
65 14 211
70 14 214
75 14 217
80 14 220
85 14 223
90 14 226
95 14 229
100 14 232
105 14 235
110 14 238
115 14 241
120 14 244
125 14 247
130 14 250
135 14 253
140 14 0
145 14 3
150 14 6
155 14 9
160 14 12
165 14 15
170 14 18
175 14 21
180 14 24
185 14 27
190 14 30
195 14 33
200 14 36
205 14 39
210 14 42
215 14 45
220 14 48
225 14 51
230 14 54
235 14 57
240 14 60
245 14 63
250 14 66
255 14 69
4 14 72
9 14 75
20 19 187
25 19 190
30 19 193
35 19 196
40 19 199
45 19 202
50 19 205
55 19 208
60 19 211
65 19 214
70 19 217
75 19 220
80 19 223
85 19 226
90 19 229
95 19 232
100 19 235
105 19 238
110 19 241
115 19 244
120 19 247
125 19 250
130 19 253
135 19 0
140 19 3
145 19 6
150 19 9
155 19 12
160 19 15
165 19 18
170 19 21
175 19 24
180 19 27
185 19 30
190 19 33
195 19 36
200 19 39
205 19 42
210 19 45
215 19 48
220 19 51
225 19 54
230 19 57
235 19 60
240 19 63
245 19 66
250 19 69
255 19 72
4 19 75
9 19 78
