P3
50 50
255
60 90 120
65 90 123
70 90 126
75 90 129
80 90 132
85 90 135
90 90 138
95 90 141
100 90 144
105 90 147
110 90 150
115 90 153
120 90 156
125 90 159
130 90 162
135 90 165
140 90 168
145 90 171
150 90 174
155 90 177
160 90 180
165 90 183
170 90 186
175 90 189
180 90 192
185 90 195
190 90 198
195 90 201
200 90 204
205 90 207
210 90 210
215 90 213
220 90 216
225 90 219
230 90 222
235 90 225
240 90 228
245 90 231
250 90 234
255 90 237
4 90 240
9 90 243
14 90 246
19 90 249
24 90 252
29 90 255
34 90 2
39 90 5
44 90 8
49 90 11
60 95 123
65 95 126
70 95 129
75 95 132
80 95 135
85 95 138
90 95 141
95 95 144
100 95 147
105 95 150
110 95 153
115 95 156
120 95 159
125 95 162
130 95 165
135 95 168
140 95 171
145 95 174
150 95 177
155 95 180
160 95 183
165 95 186
170 95 189
175 95 192
180 95 195
185 95 198
190 95 201
195 95 204
200 95 207
205 95 210
210 95 213
215 95 216
220 95 219
225 95 222
230 95 225
235 95 228
240 95 231
245 95 234
250 95 237
255 95 240
4 95 243
9 95 246
14 95 249
19 95 252
24 95 255
29 95 2
34 95 5
39 95 8
44 95 11
49 95 14
60 100 126
65 100 129
70 100 132
75 100 135
80 100 138
85 100 141
90 100 144
95 100 147
100 100 150
105 100 153
110 100 156
115 100 159
120 100 162
125 100 165
130 100 168
135 100 171
140 100 174
145 100 177
150 100 180
155 100 183
160 100 186
165 100 189
170 100 192
175 100 195
180 100 198
185 100 201
190 100 204
195 100 207
200 100 210
205 100 213
210 100 216
215 100 219
220 100 222
225 100 225
230 100 228
235 100 231
240 100 234
245 100 237
250 100 240
255 100 243
4 100 246
9 100 249
14 100 252
19 100 255
24 100 2
29 100 5
34 100 8
39 100 11
44 100 14
49 100 17
60 105 129
65 105 132
70 105 135
75 105 138
80 105 141
85 105 144
90 105 147
95 105 150
100 105 153
105 105 156
110 105 159
115 105 162
120 105 165
125 105 168
130 105 171
135 105 174
140 105 177
145 105 180
150 105 183
155 105 186
160 105 189
165 105 192
170 105 195
175 105 198
180 105 201
185 105 204
190 105 207
195 105 210
200 105 213
205 105 216
210 105 219
215 105 222
220 105 225
225 105 228
230 105 231
235 105 234
240 105 237
245 105 240
250 105 243
255 105 246
4 105 249
9 105 252
14 105 255
19 105 2
24 105 5
29 105 8
34 105 11
39 105 14
44 105 17
49 105 20
60 110 132
65 110 135
70 110 138
75 110 141
80 110 144
85 110 147
90 110 150
95 110 153
100 110 156
105 110 159
110 110 162
115 110 165
120 110 168
125 110 171
130 110 174
135 110 177
140 110 180
145 110 183
150 110 186
155 110 189
160 110 192
165 110 195
170 110 198
175 110 201
180 110 204
185 110 207
190 110 210
195 110 213
200 110 216
205 110 219
210 110 222
215 110 225
220 110 228
225 110 231
230 110 234
235 110 237
240 110 240
245 110 243
250 110 246
255 110 249
4 110 252
9 110 255
14 110 2
19 110 5
24 110 8
29 110 11
34 110 14
39 110 17
44 110 20
49 110 23
60 115 135
65 115 138
70 115 141
75 115 144
80 115 147
85 115 150
90 115 153
95 115 156
100 115 159
105 115 162
110 115 165
115 115 168
120 115 171
125 115 174
130 115 177
135 115 180
140 115 183
145 115 186
150 115 189
155 115 192
160 115 195
165 115 198
170 115 201
175 115 204
180 115 207
185 115 210
190 115 213
195 115 216
200 115 219
205 115 222
210 115 225
215 115 228
220 115 231
225 115 234
230 115 237
235 115 240
240 115 243
245 115 246
250 115 249
255 115 252
4 115 255
9 115 2
14 115 5
19 115 8
24 115 11
29 115 14
34 115 17
39 115 20
44 115 23
49 115 26
60 120 138
65 120 141
70 120 144
75 120 147
80 120 150
85 120 153
90 120 156
95 120 159
100 120 162
105 120 165
110 120 168
115 120 171
120 120 174
125 120 177
130 120 180
135 120 183
140 120 186
145 120 189
150 120 192
155 120 195
160 120 198
165 120 201
170 120 204
175 120 207
180 120 210
185 120 213
190 120 216
195 120 219
200 120 222
205 120 225
210 120 228
215 120 231
220 120 234
225 120 237
230 120 240
235 120 243
240 120 246
245 120 249
250 120 252
255 120 255
4 120 2
9 120 5
14 120 8
19 120 11
24 120 14
29 120 17
34 120 20
39 120 23
44 120 26
49 120 29
60 125 141
65 125 144
70 125 147
75 125 150
80 125 153
85 125 156
90 125 159
95 125 162
100 125 165
105 125 168
110 125 171
115 125 174
120 125 177
125 125 180
130 125 183
135 125 186
140 125 189
145 125 192
150 125 195
155 125 198
160 125 201
165 125 204
170 125 207
175 125 210
180 125 213
185 125 216
190 125 219
195 125 222
200 125 225
205 125 228
210 125 231
215 125 234
220 125 237
225 125 240
230 125 243
235 125 246
240 125 249
245 125 252
250 125 255
255 125 2
4 125 5
9 125 8
14 125 11
19 125 14
24 125 17
29 125 20
34 125 23
39 125 26
44 125 29
49 125 32
60 130 144
65 130 147
70 130 150
75 130 153
80 130 156
85 130 159
90 130 162
95 130 165
100 130 168
105 130 171
110 130 174
115 130 177
120 130 180
125 130 183
130 130 186
135 130 189
140 130 192
145 130 195
150 130 198
155 130 201
160 130 204
165 130 207
170 130 210
175 130 213
180 130 216
185 130 219
190 130 222
195 130 225
200 130 228
205 130 231
210 130 234
215 130 237
220 130 240
225 130 243
230 130 246
235 130 249
240 130 252
245 130 255
250 130 2
255 130 5
4 130 8
9 130 11
14 130 14
19 130 17
24 130 20
29 130 23
34 130 26
39 130 29
44 130 32
49 130 35
60 135 147
65 135 150
70 135 153
75 135 156
80 135 159
85 135 162
90 135 165
95 135 168
100 135 171
105 135 174
110 135 177
115 135 180
120 135 183
125 135 186
130 135 189
135 135 192
140 135 195
145 135 198
150 135 201
155 135 204
160 135 207
165 135 210
170 135 213
175 135 216
180 135 219
185 135 222
190 135 225
195 135 228
200 135 231
205 135 234
210 135 237
215 135 240
220 135 243
225 135 246
230 135 249
235 135 252
240 135 255
245 135 2
250 135 5
255 135 8
4 135 11
9 135 14
14 135 17
19 135 20
24 135 23
29 135 26
34 135 29
39 135 32
44 135 35
49 135 38
60 140 150
65 140 153
70 140 156
75 140 159
80 140 162
85 140 165
90 140 168
95 140 171
100 140 174
105 140 177
110 140 180
115 140 183
120 140 186
125 140 189
130 140 192
135 140 195
140 140 198
145 140 201
150 140 204
155 140 207
160 140 210
165 140 213
170 140 216
175 140 219
180 140 222
185 140 225
190 140 228
195 140 231
200 140 234
205 140 237
210 140 240
215 140 243
220 140 246
225 140 249
230 140 252
235 140 255
240 140 2
245 140 5
250 140 8
255 140 11
4 140 14
9 140 17
14 140 20
19 140 23
24 140 26
29 140 29
34 140 32
39 140 35
44 140 38
49 140 41
60 145 153
65 145 156
70 145 159
75 145 162
80 145 165
85 145 168
90 145 171
95 145 174
100 145 177
105 145 180
110 145 183
115 145 186
120 145 189
125 145 192
130 145 195
135 145 198
140 145 201
145 145 204
150 145 207
155 145 210
160 145 213
165 145 216
170 145 219
175 145 222
180 145 225
185 145 228
190 145 231
195 145 234
200 145 237
205 145 240
210 145 243
215 145 246
220 145 249
225 145 252
230 145 255
235 145 2
240 145 5
245 145 8
250 145 11
255 145 14
4 145 17
9 145 20
14 145 23
19 145 26
24 145 29
29 145 32
34 145 35
39 145 38
44 145 41
49 145 44
60 150 156
65 150 159
70 150 162
75 150 165
80 150 168
85 150 171
90 150 174
95 150 177
100 150 180
105 150 183
110 150 186
115 150 189
120 150 192
125 150 195
130 150 198
135 150 201
140 150 204
145 150 207
150 150 210
155 150 213
160 150 216
165 150 219
170 150 222
175 150 225
180 150 228
185 150 231
190 150 234
195 150 237
200 150 240
205 150 243
210 150 246
215 150 249
220 150 252
225 150 255
230 150 2
235 150 5
240 150 8
245 150 11
250 150 14
255 150 17
4 150 20
9 150 23
14 150 26
19 150 29
24 150 32
29 150 35
34 150 38
39 150 41
44 150 44
49 150 47
60 155 159
65 155 162
70 155 165
75 155 168
80 155 171
85 155 174
90 155 177
95 155 180
100 155 183
105 155 186
110 155 189
115 155 192
120 155 195
125 155 198
130 155 201
135 155 204
140 155 207
145 155 210
150 155 213
155 155 216
160 155 219
165 155 222
170 155 225
175 155 228
180 155 231
185 155 234
190 155 237
195 155 240
200 155 243
205 155 246
210 155 249
215 155 252
220 155 255
225 155 2
230 155 5
235 155 8
240 155 11
245 155 14
250 155 17
255 155 20
4 155 23
9 155 26
14 155 29
19 155 32
24 155 35
29 155 38
34 155 41
39 155 44
44 155 47
49 155 50
60 160 162
65 160 165
70 160 168
75 160 171
80 160 174
85 160 177
90 160 180
95 160 183
100 160 186
105 160 189
110 160 192
115 160 195
120 160 198
125 160 201
130 160 204
135 160 207
140 160 210
145 160 213
150 160 216
155 160 219
160 160 222
165 160 225
170 160 228
175 160 231
180 160 234
185 160 237
190 160 240
195 160 243
200 160 246
205 160 249
210 160 252
215 160 255
220 160 2
225 160 5
230 160 8
235 160 11
240 160 14
245 160 17
250 160 20
255 160 23
4 160 26
9 160 29
14 160 32
19 160 35
24 160 38
29 160 41
34 160 44
39 160 47
44 160 50
49 160 53
60 165 165
65 165 168
70 165 171
75 165 174
80 165 177
85 165 180
90 165 183
95 165 186
100 165 189
105 165 192
110 165 195
115 165 198
120 165 201
125 165 204
130 165 207
135 165 210
140 165 213
145 165 216
150 165 219
155 165 222
160 165 225
165 165 228
170 165 231
175 165 234
180 165 237
185 165 240
190 165 243
195 165 246
200 165 249
205 165 252
210 165 255
215 165 2
220 165 5
225 165 8
230 165 11
235 165 14
240 165 17
245 165 20
250 165 23
255 165 26
4 165 29
9 165 32
14 165 35
19 165 38
24 165 41
29 165 44
34 165 47
39 165 50
44 165 53
49 165 56
60 170 168
65 170 171
70 170 174
75 170 177
80 170 180
85 170 183
90 170 186
95 170 189
100 170 192
105 170 195
110 170 198
115 170 201
120 170 204
125 170 207
130 170 210
135 170 213
140 170 216
145 170 219
150 170 222
155 170 225
160 170 228
165 170 231
170 170 234
175 170 237
180 170 240
185 170 243
190 170 246
195 170 249
200 170 252
205 170 255
210 170 2
215 170 5
220 170 8
225 170 11
230 170 14
235 170 17
240 170 20
245 170 23
250 170 26
255 170 29
4 170 32
9 170 35
14 170 38
19 170 41
24 170 44
29 170 47
34 170 50
39 170 53
44 170 56
49 170 59
60 175 171
65 175 174
70 175 177
75 175 180
80 175 183
85 175 186
90 175 189
95 175 192
100 175 195
105 175 198
110 175 201
115 175 204
120 175 207
125 175 210
130 175 213
135 175 216
140 175 219
145 175 222
150 175 225
155 175 228
160 175 231
165 175 234
170 175 237
175 175 240
180 175 243
185 175 246
190 175 249
195 175 252
200 175 255
205 175 2
210 175 5
215 175 8
220 175 11
225 175 14
230 175 17
235 175 20
240 175 23
245 175 26
250 175 29
255 175 32
4 175 35
9 175 38
14 175 41
19 175 44
24 175 47
29 175 50
34 175 53
39 175 56
44 175 59
49 175 62
60 180 174
65 180 177
70 180 180
75 180 183
80 180 186
85 180 189
90 180 192
95 180 195
100 180 198
105 180 201
110 180 204
115 180 207
120 180 210
125 180 213
130 180 216
135 180 219
140 180 222
145 180 225
150 180 228
155 180 231
160 180 234
165 180 237
170 180 240
175 180 243
180 180 246
185 180 249
190 180 252
195 180 255
200 180 2
205 180 5
210 180 8
215 180 11
220 180 14
225 180 17
230 180 20
235 180 23
240 180 26
245 180 29
250 180 32
255 180 35
4 180 38
9 180 41
14 180 44
19 180 47
24 180 50
29 180 53
34 180 56
39 180 59
44 180 62
49 180 65
60 185 177
65 185 180
70 185 183
75 185 186
80 185 189
85 185 192
90 185 195
95 185 198
100 185 201
105 185 204
110 185 207
115 185 210
120 185 213
125 185 216
130 185 219
135 185 222
140 185 225
145 185 228
150 185 231
155 185 234
160 185 237
165 185 240
170 185 243
175 185 246
180 185 249
185 185 252
190 185 255
195 185 2
200 185 5
205 185 8
210 185 11
215 185 14
220 185 17
225 185 20
230 185 23
235 185 26
240 185 29
245 185 32
250 185 35
255 185 38
4 185 41
9 185 44
14 185 47
19 185 50
24 185 53
29 185 56
34 185 59
39 185 62
44 185 65
49 185 68
60 190 180
65 190 183
70 190 186
75 190 189
80 190 192
85 190 195
90 190 198
95 190 201
100 190 204
105 190 207
110 190 210
115 190 213
120 190 216
125 190 219
130 190 222
135 190 225
140 190 228
145 190 231
150 190 234
155 190 237
160 190 240
165 190 243
170 190 246
175 190 249
180 190 252
185 190 255
190 190 2
195 190 5
200 190 8
205 190 11
210 190 14
215 190 17
220 190 20
225 190 23
230 190 26
235 190 29
240 190 32
245 190 35
250 190 38
255 190 41
4 190 44
9 190 47
14 190 50
19 190 53
24 190 56
29 190 59
34 190 62
39 190 65
44 190 68
49 190 71
60 195 183
65 195 186
70 195 189
75 195 192
80 195 195
85 195 198
90 195 201
95 195 204
100 195 207
105 195 210
110 195 213
115 195 216
120 195 219
125 195 222
130 195 225
135 195 228
140 195 231
145 195 234
150 195 237
155 195 240
160 195 243
165 195 246
170 195 249
175 195 252
180 195 255
185 195 2
190 195 5
195 195 8
200 195 11
205 195 14
210 195 17
215 195 20
220 195 23
225 195 26
230 195 29
235 195 32
240 195 35
245 195 38
250 195 41
255 195 44
4 195 47
9 195 50
14 195 53
19 195 56
24 195 59
29 195 62
34 195 65
39 195 68
44 195 71
49 195 74
60 200 186
65 200 189
70 200 192
75 200 195
80 200 198
85 200 201
90 200 204
95 200 207
100 200 210
105 200 213
110 200 216
115 200 219
120 200 222
125 200 225
130 200 228
135 200 231
140 200 234
145 200 237
150 200 240
155 200 243
160 200 246
165 200 249
170 200 252
175 200 255
180 200 2
185 200 5
190 200 8
195 200 11
200 200 14
205 200 17
210 200 20
215 200 23
220 200 26
225 200 29
230 200 32
235 200 35
240 200 38
245 200 41
250 200 44
255 200 47
4 200 50
9 200 53
14 200 56
19 200 59
24 200 62
29 200 65
34 200 68
39 200 71
44 200 74
49 200 77
60 205 189
65 205 192
70 205 195
75 205 198
80 205 201
85 205 204
90 205 207
95 205 210
100 205 213
105 205 216
110 205 219
115 205 222
120 205 225
125 205 228
130 205 231
135 205 234
140 205 237
145 205 240
150 205 243
155 205 246
160 205 249
165 205 252
170 205 255
175 205 2
180 205 5
185 205 8
190 205 11
195 205 14
200 205 17
205 205 20
210 205 23
215 205 26
220 205 29
225 205 32
230 205 35
235 205 38
240 205 41
245 205 44
250 205 47
255 205 50
4 205 53
9 205 56
14 205 59
19 205 62
24 205 65
29 205 68
34 205 71
39 205 74
44 205 77
49 205 80
60 210 192
65 210 195
70 210 198
75 210 201
80 210 204
85 210 207
90 210 210
95 210 213
100 210 216
105 210 219
110 210 222
115 210 225
120 210 228
125 210 231
130 210 234
135 210 237
140 210 240
145 210 243
150 210 246
155 210 249
160 210 252
165 210 255
170 210 2
175 210 5
180 210 8
185 210 11
190 210 14
195 210 17
200 210 20
205 210 23
210 210 26
215 210 29
220 210 32
225 210 35
230 210 38
235 210 41
240 210 44
245 210 47
250 210 50
255 210 53
4 210 56
9 210 59
14 210 62
19 210 65
24 210 68
29 210 71
34 210 74
39 210 77
44 210 80
49 210 83
60 215 195
65 215 198
70 215 201
75 215 204
80 215 207
85 215 210
90 215 213
95 215 216
100 215 219
105 215 222
110 215 225
115 215 228
120 215 231
125 215 234
130 215 237
135 215 240
140 215 243
145 215 246
150 215 249
155 215 252
160 215 255
165 215 2
170 215 5
175 215 8
180 215 11
185 215 14
190 215 17
195 215 20
200 215 23
205 215 26
210 215 29
215 215 32
220 215 35
225 215 38
230 215 41
235 215 44
240 215 47
245 215 50
250 215 53
255 215 56
4 215 59
9 215 62
14 215 65
19 215 68
24 215 71
29 215 74
34 215 77
39 215 80
44 215 83
49 215 86
60 220 198
65 220 201
70 220 204
75 220 207
80 220 210
85 220 213
90 220 216
95 220 219
100 220 222
105 220 225
110 220 228
115 220 231
120 220 234
125 220 237
130 220 240
135 220 243
140 220 246
145 220 249
150 220 252
155 220 255
160 220 2
165 220 5
170 220 8
175 220 11
180 220 14
185 220 17
190 220 20
195 220 23
200 220 26
205 220 29
210 220 32
215 220 35
220 220 38
225 220 41
230 220 44
235 220 47
240 220 50
245 220 53
250 220 56
255 220 59
4 220 62
9 220 65
14 220 68
19 220 71
24 220 74
29 220 77
34 220 80
39 220 83
44 220 86
49 220 89
60 225 201
65 225 204
70 225 207
75 225 210
80 225 213
85 225 216
90 225 219
95 225 222
100 225 225
105 225 228
110 225 231
115 225 234
120 225 237
125 225 240
130 225 243
135 225 246
140 225 249
145 225 252
150 225 255
155 225 2
160 225 5
165 225 8
170 225 11
175 225 14
180 225 17
185 225 20
190 225 23
195 225 26
200 225 29
205 225 32
210 225 35
215 225 38
220 225 41
225 225 44
230 225 47
235 225 50
240 225 53
245 225 56
250 225 59
255 225 62
4 225 65
9 225 68
14 225 71
19 225 74
24 225 77
29 225 80
34 225 83
39 225 86
44 225 89
49 225 92
60 230 204
65 230 207
70 230 210
75 230 213
80 230 216
85 230 219
90 230 222
95 230 225
100 230 228
105 230 231
110 230 234
115 230 237
120 230 240
125 230 243
130 230 246
135 230 249
140 230 252
145 230 255
150 230 2
155 230 5
160 230 8
165 230 11
170 230 14
175 230 17
180 230 20
185 230 23
190 230 26
195 230 29
200 230 32
205 230 35
210 230 38
215 230 41
220 230 44
225 230 47
230 230 50
235 230 53
240 230 56
245 230 59
250 230 62
255 230 65
4 230 68
9 230 71
14 230 74
19 230 77
24 230 80
29 230 83
34 230 86
39 230 89
44 230 92
49 230 95
60 235 207
65 235 210
70 235 213
75 235 216
80 235 219
85 235 222
90 235 225
95 235 228
100 235 231
105 235 234
110 235 237
115 235 240
120 235 243
125 235 246
130 235 249
135 235 252
140 235 255
145 235 2
150 235 5
155 235 8
160 235 11
165 235 14
170 235 17
175 235 20
180 235 23
185 235 26
190 235 29
195 235 32
200 235 35
205 235 38
210 235 41
215 235 44
220 235 47
225 235 50
230 235 53
235 235 56
240 235 59
245 235 62
250 235 65
255 235 68
4 235 71
9 235 74
14 235 77
19 235 80
24 235 83
29 235 86
34 235 89
39 235 92
44 235 95
49 235 98
60 240 210
65 240 213
70 240 216
75 240 219
80 240 222
85 240 225
90 240 228
95 240 231
100 240 234
105 240 237
110 240 240
115 240 243
120 240 246
125 240 249
130 240 252
135 240 255
140 240 2
145 240 5
150 240 8
155 240 11
160 240 14
165 240 17
170 240 20
175 240 23
180 240 26
185 240 29
190 240 32
195 240 35
200 240 38
205 240 41
210 240 44
215 240 47
220 240 50
225 240 53
230 240 56
235 240 59
240 240 62
245 240 65
250 240 68
255 240 71
4 240 74
9 240 77
14 240 80
19 240 83
24 240 86
29 240 89
34 240 92
39 240 95
44 240 98
49 240 101
60 245 213
65 245 216
70 245 219
75 245 222
80 245 225
85 245 228
90 245 231
95 245 234
100 245 237
105 245 240
110 245 243
115 245 246
120 245 249
125 245 252
130 245 255
135 245 2
140 245 5
145 245 8
150 245 11
155 245 14
160 245 17
165 245 20
170 245 23
175 245 26
180 245 29
185 245 32
190 245 35
195 245 38
200 245 41
205 245 44
210 245 47
215 245 50
220 245 53
225 245 56
230 245 59
235 245 62
240 245 65
245 245 68
250 245 71
255 245 74
4 245 77
9 245 80
14 245 83
19 245 86
24 245 89
29 245 92
34 245 95
39 245 98
44 245 101
49 245 104
60 250 216
65 250 219
70 250 222
75 250 225
80 250 228
85 250 231
90 250 234
95 250 237
100 250 240
105 250 243
110 250 246
115 250 249
120 250 252
125 250 255
130 250 2
135 250 5
140 250 8
145 250 11
150 250 14
155 250 17
160 250 20
165 250 23
170 250 26
175 250 29
180 250 32
185 250 35
190 250 38
195 250 41
200 250 44
205 250 47
210 250 50
215 250 53
220 250 56
225 250 59
230 250 62
235 250 65
240 250 68
245 250 71
250 250 74
255 250 77
4 250 80
9 250 83
14 250 86
19 250 89
24 250 92
29 250 95
34 250 98
39 250 101
44 250 104
49 250 107
60 255 219
65 255 222
70 255 225
75 255 228
80 255 231
85 255 234
90 255 237
95 255 240
100 255 243
105 255 246
110 255 249
115 255 252
120 255 255
125 255 2
130 255 5
135 255 8
140 255 11
145 255 14
150 255 17
155 255 20
160 255 23
165 255 26
170 255 29
175 255 32
180 255 35
185 255 38
190 255 41
195 255 44
200 255 47
205 255 50
210 255 53
215 255 56
220 255 59
225 255 62
230 255 65
235 255 68
240 255 71
245 255 74
250 255 77
255 255 80
4 255 83
9 255 86
14 255 89
19 255 92
24 255 95
29 255 98
34 255 101
39 255 104
44 255 107
49 255 110
60 4 222
65 4 225
70 4 228
75 4 231
80 4 234
85 4 237
90 4 240
95 4 243
100 4 246
105 4 249
110 4 252
115 4 255
120 4 2
125 4 5
130 4 8
135 4 11
140 4 14
145 4 17
150 4 20
155 4 23
160 4 26
165 4 29
170 4 32
175 4 35
180 4 38
185 4 41
190 4 44
195 4 47
200 4 50
205 4 53
210 4 56
215 4 59
220 4 62
225 4 65
230 4 68
235 4 71
240 4 74
245 4 77
250 4 80
255 4 83
4 4 86
9 4 89
14 4 92
19 4 95
24 4 98
29 4 101
34 4 104
39 4 107
44 4 110
49 4 113
60 9 225
65 9 228
70 9 231
75 9 234
80 9 237
85 9 240
90 9 243
95 9 246
100 9 249
105 9 252
110 9 255
115 9 2
120 9 5
125 9 8
130 9 11
135 9 14
140 9 17
145 9 20
150 9 23
155 9 26
160 9 29
165 9 32
170 9 35
175 9 38
180 9 41
185 9 44
190 9 47
195 9 50
200 9 53
205 9 56
210 9 59
215 9 62
220 9 65
225 9 68
230 9 71
235 9 74
240 9 77
245 9 80
250 9 83
255 9 86
4 9 89
9 9 92
14 9 95
19 9 98
24 9 101
29 9 104
34 9 107
39 9 110
44 9 113
49 9 116
60 14 228
65 14 231
70 14 234
75 14 237
80 14 240
85 14 243
90 14 246
95 14 249
100 14 252
105 14 255
110 14 2
115 14 5
120 14 8
125 14 11
130 14 14
135 14 17
140 14 20
145 14 23
150 14 26
155 14 29
160 14 32
165 14 35
170 14 38
175 14 41
180 14 44
185 14 47
190 14 50
195 14 53
200 14 56
205 14 59
210 14 62
215 14 65
220 14 68
225 14 71
230 14 74
235 14 77
240 14 80
245 14 83
250 14 86
255 14 89
4 14 92
9 14 95
14 14 98
19 14 101
24 14 104
29 14 107
34 14 110
39 14 113
44 14 116
49 14 119
60 19 231
65 19 234
70 19 237
75 19 240
80 19 243
85 19 246
90 19 249
95 19 252
100 19 255
105 19 2
110 19 5
115 19 8
120 19 11
125 19 14
130 19 17
135 19 20
140 19 23
145 19 26
150 19 29
155 19 32
160 19 35
165 19 38
170 19 41
175 19 44
180 19 47
185 19 50
190 19 53
195 19 56
200 19 59
205 19 62
210 19 65
215 19 68
220 19 71
225 19 74
230 19 77
235 19 80
240 19 83
245 19 86
250 19 89
255 19 92
4 19 95
9 19 98
14 19 101
19 19 104
24 19 107
29 19 110
34 19 113
39 19 116
44 19 119
49 19 122
60 24 234
65 24 237
70 24 240
75 24 243
80 24 246
85 24 249
90 24 252
95 24 255
100 24 2
105 24 5
110 24 8
115 24 11
120 24 14
125 24 17
130 24 20
135 24 23
140 24 26
145 24 29
150 24 32
155 24 35
160 24 38
165 24 41
170 24 44
175 24 47
180 24 50
185 24 53
190 24 56
195 24 59
200 24 62
205 24 65
210 24 68
215 24 71
220 24 74
225 24 77
230 24 80
235 24 83
240 24 86
245 24 89
250 24 92
255 24 95
4 24 98
9 24 101
14 24 104
19 24 107
24 24 110
29 24 113
34 24 116
39 24 119
44 24 122
49 24 125
60 29 237
65 29 240
70 29 243
75 29 246
80 29 249
85 29 252
90 29 255
95 29 2
100 29 5
105 29 8
110 29 11
115 29 14
120 29 17
125 29 20
130 29 23
135 29 26
140 29 29
145 29 32
150 29 35
155 29 38
160 29 41
165 29 44
170 29 47
175 29 50
180 29 53
185 29 56
190 29 59
195 29 62
200 29 65
205 29 68
210 29 71
215 29 74
220 29 77
225 29 80
230 29 83
235 29 86
240 29 89
245 29 92
250 29 95
255 29 98
4 29 101
9 29 104
14 29 107
19 29 110
24 29 113
29 29 116
34 29 119
39 29 122
44 29 125
49 29 128
60 34 240
65 34 243
70 34 246
75 34 249
80 34 252
85 34 255
90 34 2
95 34 5
100 34 8
105 34 11
110 34 14
115 34 17
120 34 20
125 34 23
130 34 26
135 34 29
140 34 32
145 34 35
150 34 38
155 34 41
160 34 44
165 34 47
170 34 50
175 34 53
180 34 56
185 34 59
190 34 62
195 34 65
200 34 68
205 34 71
210 34 74
215 34 77
220 34 80
225 34 83
230 34 86
235 34 89
240 34 92
245 34 95
250 34 98
255 34 101
4 34 104
9 34 107
14 34 110
19 34 113
24 34 116
29 34 119
34 34 122
39 34 125
44 34 128
49 34 131
60 39 243
65 39 246
70 39 249
75 39 252
80 39 255
85 39 2
90 39 5
95 39 8
100 39 11
105 39 14
110 39 17
115 39 20
120 39 23
125 39 26
130 39 29
135 39 32
140 39 35
145 39 38
150 39 41
155 39 44
160 39 47
165 39 50
170 39 53
175 39 56
180 39 59
185 39 62
190 39 65
195 39 68
200 39 71
205 39 74
210 39 77
215 39 80
220 39 83
225 39 86
230 39 89
235 39 92
240 39 95
245 39 98
250 39 101
255 39 104
4 39 107
9 39 110
14 39 113
19 39 116
24 39 119
29 39 122
34 39 125
39 39 128
44 39 131
49 39 134
60 44 246
65 44 249
70 44 252
75 44 255
80 44 2
85 44 5
90 44 8
95 44 11
100 44 14
105 44 17
110 44 20
115 44 23
120 44 26
125 44 29
130 44 32
135 44 35
140 44 38
145 44 41
150 44 44
155 44 47
160 44 50
165 44 53
170 44 56
175 44 59
180 44 62
185 44 65
190 44 68
195 44 71
200 44 74
205 44 77
210 44 80
215 44 83
220 44 86
225 44 89
230 44 92
235 44 95
240 44 98
245 44 101
250 44 104
255 44 107
4 44 110
9 44 113
14 44 116
19 44 119
24 44 122
29 44 125
34 44 128
39 44 131
44 44 134
49 44 137
60 49 249
65 49 252
70 49 255
75 49 2
80 49 5
85 49 8
90 49 11
95 49 14
100 49 17
105 49 20
110 49 23
115 49 26
120 49 29
125 49 32
130 49 35
135 49 38
140 49 41
145 49 44
150 49 47
155 49 50
160 49 53
165 49 56
170 49 59
175 49 62
180 49 65
185 49 68
190 49 71
195 49 74
200 49 77
205 49 80
210 49 83
215 49 86
220 49 89
225 49 92
230 49 95
235 49 98
240 49 101
245 49 104
250 49 107
255 49 110
4 49 113
9 49 116
14 49 119
19 49 122
24 49 125
29 49 128
34 49 131
39 49 134
44 49 137
49 49 140
60 54 252
65 54 255
70 54 2
75 54 5
80 54 8
85 54 11
90 54 14
95 54 17
100 54 20
105 54 23
110 54 26
115 54 29
120 54 32
125 54 35
130 54 38
135 54 41
140 54 44
145 54 47
150 54 50
155 54 53
160 54 56
165 54 59
170 54 62
175 54 65
180 54 68
185 54 71
190 54 74
195 54 77
200 54 80
205 54 83
210 54 86
215 54 89
220 54 92
225 54 95
230 54 98
235 54 101
240 54 104
245 54 107
250 54 110
255 54 113
4 54 116
9 54 119
14 54 122
19 54 125
24 54 128
29 54 131
34 54 134
39 54 137
44 54 140
49 54 143
60 59 255
65 59 2
70 59 5
75 59 8
80 59 11
85 59 14
90 59 17
95 59 20
100 59 23
105 59 26
110 59 29
115 59 32
120 59 35
125 59 38
130 59 41
135 59 44
140 59 47
145 59 50
150 59 53
155 59 56
160 59 59
165 59 62
170 59 65
175 59 68
180 59 71
185 59 74
190 59 77
195 59 80
200 59 83
205 59 86
210 59 89
215 59 92
220 59 95
225 59 98
230 59 101
235 59 104
240 59 107
245 59 110
250 59 113
255 59 116
4 59 119
9 59 122
14 59 125
19 59 128
24 59 131
29 59 134
34 59 137
39 59 140
44 59 143
49 59 146
60 64 2
65 64 5
70 64 8
75 64 11
80 64 14
85 64 17
90 64 20
95 64 23
100 64 26
105 64 29
110 64 32
115 64 35
120 64 38
125 64 41
130 64 44
135 64 47
140 64 50
145 64 53
150 64 56
155 64 59
160 64 62
165 64 65
170 64 68
175 64 71
180 64 74
185 64 77
190 64 80
195 64 83
200 64 86
205 64 89
210 64 92
215 64 95
220 64 98
225 64 101
230 64 104
235 64 107
240 64 110
245 64 113
250 64 116
255 64 119
4 64 122
9 64 125
14 64 128
19 64 131
24 64 134
29 64 137
34 64 140
39 64 143
44 64 146
49 64 149
60 69 5
65 69 8
70 69 11
75 69 14
80 69 17
85 69 20
90 69 23
95 69 26
100 69 29
105 69 32
110 69 35
115 69 38
120 69 41
125 69 44
130 69 47
135 69 50
140 69 53
145 69 56
150 69 59
155 69 62
160 69 65
165 69 68
170 69 71
175 69 74
180 69 77
185 69 80
190 69 83
195 69 86
200 69 89
205 69 92
210 69 95
215 69 98
220 69 101
225 69 104
230 69 107
235 69 110
240 69 113
245 69 116
250 69 119
255 69 122
4 69 125
9 69 128
14 69 131
19 69 134
24 69 137
29 69 140
34 69 143
39 69 146
44 69 149
49 69 152
60 74 8
65 74 11
70 74 14
75 74 17
80 74 20
85 74 23
90 74 26
95 74 29
100 74 32
105 74 35
110 74 38
115 74 41
120 74 44
125 74 47
130 74 50
135 74 53
140 74 56
145 74 59
150 74 62
155 74 65
160 74 68
165 74 71
170 74 74
175 74 77
180 74 80
185 74 83
190 74 86
195 74 89
200 74 92
205 74 95
210 74 98
215 74 101
220 74 104
225 74 107
230 74 110
235 74 113
240 74 116
245 74 119
250 74 122
255 74 125
4 74 128
9 74 131
14 74 134
19 74 137
24 74 140
29 74 143
34 74 146
39 74 149
44 74 152
49 74 155
60 79 11
65 79 14
70 79 17
75 79 20
80 79 23
85 79 26
90 79 29
95 79 32
100 79 35
105 79 38
110 79 41
115 79 44
120 79 47
125 79 50
130 79 53
135 79 56
140 79 59
145 79 62
150 79 65
155 79 68
160 79 71
165 79 74
170 79 77
175 79 80
180 79 83
185 79 86
190 79 89
195 79 92
200 79 95
205 79 98
210 79 101
215 79 104
220 79 107
225 79 110
230 79 113
235 79 116
240 79 119
245 79 122
250 79 125
255 79 128
4 79 131
9 79 134
14 79 137
19 79 140
24 79 143
29 79 146
34 79 149
39 79 152
44 79 155
49 79 158
