P3
50 50
255
100 150 200
105 150 203
110 150 206
115 150 209
120 150 212
125 150 215
130 150 218
135 150 221
140 150 224
145 150 227
150 150 230
155 150 233
160 150 236
165 150 239
170 150 242
175 150 245
180 150 248
185 150 251
190 150 254
195 150 1
200 150 4
205 150 7
210 150 10
215 150 13
220 150 16
225 150 19
230 150 22
235 150 25
240 150 28
245 150 31
250 150 34
255 150 37
4 150 40
9 150 43
14 150 46
19 150 49
24 150 52
29 150 55
34 150 58
39 150 61
44 150 64
49 150 67
54 150 70
59 150 73
64 150 76
69 150 79
74 150 82
79 150 85
84 150 88
89 150 91
100 155 203
105 155 206
110 155 209
115 155 212
120 155 215
125 155 218
130 155 221
135 155 224
140 155 227
145 155 230
150 155 233
155 155 236
160 155 239
165 155 242
170 155 245
175 155 248
180 155 251
185 155 254
190 155 1
195 155 4
200 155 7
205 155 10
210 155 13
215 155 16
220 155 19
225 155 22
230 155 25
235 155 28
240 155 31
245 155 34
250 155 37
255 155 40
4 155 43
9 155 46
14 155 49
19 155 52
24 155 55
29 155 58
34 155 61
39 155 64
44 155 67
49 155 70
54 155 73
59 155 76
64 155 79
69 155 82
74 155 85
79 155 88
84 155 91
89 155 94
100 160 206
105 160 209
110 160 212
115 160 215
120 160 218
125 160 221
130 160 224
135 160 227
140 160 230
145 160 233
150 160 236
155 160 239
160 160 242
165 160 245
170 160 248
175 160 251
180 160 254
185 160 1
190 160 4
195 160 7
200 160 10
205 160 13
210 160 16
215 160 19
220 160 22
225 160 25
230 160 28
235 160 31
240 160 34
245 160 37
250 160 40
255 160 43
4 160 46
9 160 49
14 160 52
19 160 55
24 160 58
29 160 61
34 160 64
39 160 67
44 160 70
49 160 73
54 160 76
59 160 79
64 160 82
69 160 85
74 160 88
79 160 91
84 160 94
89 160 97
100 165 209
105 165 212
110 165 215
115 165 218
120 165 221
125 165 224
130 165 227
135 165 230
140 165 233
145 165 236
150 165 239
155 165 242
160 165 245
165 165 248
170 165 251
175 165 254
180 165 1
185 165 4
190 165 7
195 165 10
200 165 13
205 165 16
210 165 19
215 165 22
220 165 25
225 165 28
230 165 31
235 165 34
240 165 37
245 165 40
250 165 43
255 165 46
4 165 49
9 165 52
14 165 55
19 165 58
24 165 61
29 165 64
34 165 67
39 165 70
44 165 73
49 165 76
54 165 79
59 165 82
64 165 85
69 165 88
74 165 91
79 165 94
84 165 97
89 165 100
100 170 212
105 170 215
110 170 218
115 170 221
120 170 224
125 170 227
130 170 230
135 170 233
140 170 236
145 170 239
150 170 242
155 170 245
160 170 248
165 170 251
170 170 254
175 170 1
180 170 4
185 170 7
190 170 10
195 170 13
200 170 16
205 170 19
210 170 22
215 170 25
220 170 28
225 170 31
230 170 34
235 170 37
240 170 40
245 170 43
250 170 46
255 170 49
4 170 52
9 170 55
14 170 58
19 170 61
24 170 64
29 170 67
34 170 70
39 170 73
44 170 76
49 170 79
54 170 82
59 170 85
64 170 88
69 170 91
74 170 94
79 170 97
84 170 100
89 170 103
100 175 215
105 175 218
110 175 221
115 175 224
120 175 227
125 175 230
130 175 233
135 175 236
140 175 239
145 175 242
150 175 245
155 175 248
160 175 251
165 175 254
170 175 1
175 175 4
180 175 7
185 175 10
190 175 13
195 175 16
200 175 19
205 175 22
210 175 25
215 175 28
220 175 31
225 175 34
230 175 37
235 175 40
240 175 43
245 175 46
250 175 49
255 175 52
4 175 55
9 175 58
14 175 61
19 175 64
24 175 67
29 175 70
34 175 73
39 175 76
44 175 79
49 175 82
54 175 85
59 175 88
64 175 91
69 175 94
74 175 97
79 175 100
84 175 103
89 175 106
100 180 218
105 180 221
110 180 224
115 180 227
120 180 230
125 180 233
130 180 236
135 180 239
140 180 242
145 180 245
150 180 248
155 180 251
160 180 254
165 180 1
170 180 4
175 180 7
180 180 10
185 180 13
190 180 16
195 180 19
200 180 22
205 180 25
210 180 28
215 180 31
220 180 34
225 180 37
230 180 40
235 180 43
240 180 46
245 180 49
250 180 52
255 180 55
4 180 58
9 180 61
14 180 64
19 180 67
24 180 70
29 180 73
34 180 76
39 180 79
44 180 82
49 180 85
54 180 88
59 180 91
64 180 94
69 180 97
74 180 100
79 180 103
84 180 106
89 180 109
100 185 221
105 185 224
110 185 227
115 185 230
120 185 233
125 185 236
130 185 239
135 185 242
140 185 245
145 185 248
150 185 251
155 185 254
160 185 1
165 185 4
170 185 7
175 185 10
180 185 13
185 185 16
190 185 19
195 185 22
200 185 25
205 185 28
210 185 31
215 185 34
220 185 37
225 185 40
230 185 43
235 185 46
240 185 49
245 185 52
250 185 55
255 185 58
4 185 61
9 185 64
14 185 67
19 185 70
24 185 73
29 185 76
34 185 79
39 185 82
44 185 85
49 185 88
54 185 91
59 185 94
64 185 97
69 185 100
74 185 103
79 185 106
84 185 109
89 185 112
100 190 224
105 190 227
110 190 230
115 190 233
120 190 236
125 190 239
130 190 242
135 190 245
140 190 248
145 190 251
150 190 254
155 190 1
160 190 4
165 190 7
170 190 10
175 190 13
180 190 16
185 190 19
190 190 22
195 190 25
200 190 28
205 190 31
210 190 34
215 190 37
220 190 40
225 190 43
230 190 46
235 190 49
240 190 52
245 190 55
250 190 58
255 190 61
4 190 64
9 190 67
14 190 70
19 190 73
24 190 76
29 190 79
34 190 82
39 190 85
44 190 88
49 190 91
54 190 94
59 190 97
64 190 100
69 190 103
74 190 106
79 190 109
84 190 112
89 190 115
100 195 227
105 195 230
110 195 233
115 195 236
120 195 239
125 195 242
130 195 245
135 195 248
140 195 251
145 195 254
150 195 1
155 195 4
160 195 7
165 195 10
170 195 13
175 195 16
180 195 19
185 195 22
190 195 25
195 195 28
200 195 31
205 195 34
210 195 37
215 195 40
220 195 43
225 195 46
230 195 49
235 195 52
240 195 55
245 195 58
250 195 61
255 195 64
4 195 67
9 195 70
14 195 73
19 195 76
24 195 79
29 195 82
34 195 85
39 195 88
44 195 91
49 195 94
54 195 97
59 195 100
64 195 103
69 195 106
74 195 109
79 195 112
84 195 115
89 195 118
100 200 230
105 200 233
110 200 236
115 200 239
120 200 242
125 200 245
130 200 248
135 200 251
140 200 254
145 200 1
150 200 4
155 200 7
160 200 10
165 200 13
170 200 16
175 200 19
180 200 22
185 200 25
190 200 28
195 200 31
200 200 34
205 200 37
210 200 40
215 200 43
220 200 46
225 200 49
230 200 52
235 200 55
240 200 58
245 200 61
250 200 64
255 200 67
4 200 70
9 200 73
14 200 76
19 200 79
24 200 82
29 200 85
34 200 88
39 200 91
44 200 94
49 200 97
54 200 100
59 200 103
64 200 106
69 200 109
74 200 112
79 200 115
84 200 118
89 200 121
100 205 233
105 205 236
110 205 239
115 205 242
120 205 245
125 205 248
130 205 251
135 205 254
140 205 1
145 205 4
150 205 7
155 205 10
160 205 13
165 205 16
170 205 19
175 205 22
180 205 25
185 205 28
190 205 31
195 205 34
200 205 37
205 205 40
210 205 43
215 205 46
220 205 49
225 205 52
230 205 55
235 205 58
240 205 61
245 205 64
250 205 67
255 205 70
4 205 73
9 205 76
14 205 79
19 205 82
24 205 85
29 205 88
34 205 91
39 205 94
44 205 97
49 205 100
54 205 103
59 205 106
64 205 109
69 205 112
74 205 115
79 205 118
84 205 121
89 205 124
100 210 236
105 210 239
110 210 242
115 210 245
120 210 248
125 210 251
130 210 254
135 210 1
140 210 4
145 210 7
150 210 10
155 210 13
160 210 16
165 210 19
170 210 22
175 210 25
180 210 28
185 210 31
190 210 34
195 210 37
200 210 40
205 210 43
210 210 46
215 210 49
220 210 52
225 210 55
230 210 58
235 210 61
240 210 64
245 210 67
250 210 70
255 210 73
4 210 76
9 210 79
14 210 82
19 210 85
24 210 88
29 210 91
34 210 94
39 210 97
44 210 100
49 210 103
54 210 106
59 210 109
64 210 112
69 210 115
74 210 118
79 210 121
84 210 124
89 210 127
100 215 239
105 215 242
110 215 245
115 215 248
120 215 251
125 215 254
130 215 1
135 215 4
140 215 7
145 215 10
150 215 13
155 215 16
160 215 19
165 215 22
170 215 25
175 215 28
180 215 31
185 215 34
190 215 37
195 215 40
200 215 43
205 215 46
210 215 49
215 215 52
220 215 55
225 215 58
230 215 61
235 215 64
240 215 67
245 215 70
250 215 73
255 215 76
4 215 79
9 215 82
14 215 85
19 215 88
24 215 91
29 215 94
34 215 97
39 215 100
44 215 103
49 215 106
54 215 109
59 215 112
64 215 115
69 215 118
74 215 121
79 215 124
84 215 127
89 215 130
100 220 242
105 220 245
110 220 248
115 220 251
120 220 254
125 220 1
130 220 4
135 220 7
140 220 10
145 220 13
150 220 16
155 220 19
160 220 22
165 220 25
170 220 28
175 220 31
180 220 34
185 220 37
190 220 40
195 220 43
200 220 46
205 220 49
210 220 52
215 220 55
220 220 58
225 220 61
230 220 64
235 220 67
240 220 70
245 220 73
250 220 76
255 220 79
4 220 82
9 220 85
14 220 88
19 220 91
24 220 94
29 220 97
34 220 100
39 220 103
44 220 106
49 220 109
54 220 112
59 220 115
64 220 118
69 220 121
74 220 124
79 220 127
84 220 130
89 220 133
100 225 245
105 225 248
110 225 251
115 225 254
120 225 1
125 225 4
130 225 7
135 225 10
140 225 13
145 225 16
150 225 19
155 225 22
160 225 25
165 225 28
170 225 31
175 225 34
180 225 37
185 225 40
190 225 43
195 225 46
200 225 49
205 225 52
210 225 55
215 225 58
220 225 61
225 225 64
230 225 67
235 225 70
240 225 73
245 225 76
250 225 79
255 225 82
4 225 85
9 225 88
14 225 91
19 225 94
24 225 97
29 225 100
34 225 103
39 225 106
44 225 109
49 225 112
54 225 115
59 225 118
64 225 121
69 225 124
74 225 127
79 225 130
84 225 133
89 225 136
100 230 248
105 230 251
110 230 254
115 230 1
120 230 4
125 230 7
130 230 10
135 230 13
140 230 16
145 230 19
150 230 22
155 230 25
160 230 28
165 230 31
170 230 34
175 230 37
180 230 40
185 230 43
190 230 46
195 230 49
200 230 52
205 230 55
210 230 58
215 230 61
220 230 64
225 230 67
230 230 70
235 230 73
240 230 76
245 230 79
250 230 82
255 230 85
4 230 88
9 230 91
14 230 94
19 230 97
24 230 100
29 230 103
34 230 106
39 230 109
44 230 112
49 230 115
54 230 118
59 230 121
64 230 124
69 230 127
74 230 130
79 230 133
84 230 136
89 230 139
100 235 251
105 235 254
110 235 1
115 235 4
120 235 7
125 235 10
130 235 13
135 235 16
140 235 19
145 235 22
150 235 25
155 235 28
160 235 31
165 235 34
170 235 37
175 235 40
180 235 43
185 235 46
190 235 49
195 235 52
200 235 55
205 235 58
210 235 61
215 235 64
220 235 67
225 235 70
230 235 73
235 235 76
240 235 79
245 235 82
250 235 85
255 235 88
4 235 91
9 235 94
14 235 97
19 235 100
24 235 103
29 235 106
34 235 109
39 235 112
44 235 115
49 235 118
54 235 121
59 235 124
64 235 127
69 235 130
74 235 133
79 235 136
84 235 139
89 235 142
100 240 254
105 240 1
110 240 4
115 240 7
120 240 10
125 240 13
130 240 16
135 240 19
140 240 22
145 240 25
150 240 28
155 240 31
160 240 34
165 240 37
170 240 40
175 240 43
180 240 46
185 240 49
190 240 52
195 240 55
200 240 58
205 240 61
210 240 64
215 240 67
220 240 70
225 240 73
230 240 76
235 240 79
240 240 82
245 240 85
250 240 88
255 240 91
4 240 94
9 240 97
14 240 100
19 240 103
24 240 106
29 240 109
34 240 112
39 240 115
44 240 118
49 240 121
54 240 124
59 240 127
64 240 130
69 240 133
74 240 136
79 240 139
84 240 142
89 240 145
100 245 1
105 245 4
110 245 7
115 245 10
120 245 13
125 245 16
130 245 19
135 245 22
140 245 25
145 245 28
150 245 31
155 245 34
160 245 37
165 245 40
170 245 43
175 245 46
180 245 49
185 245 52
190 245 55
195 245 58
200 245 61
205 245 64
210 245 67
215 245 70
220 245 73
225 245 76
230 245 79
235 245 82
240 245 85
245 245 88
250 245 91
255 245 94
4 245 97
9 245 100
14 245 103
19 245 106
24 245 109
29 245 112
34 245 115
39 245 118
44 245 121
49 245 124
54 245 127
59 245 130
64 245 133
69 245 136
74 245 139
79 245 142
84 245 145
89 245 148
100 250 4
105 250 7
110 250 10
115 250 13
120 250 16
125 250 19
130 250 22
135 250 25
140 250 28
145 250 31
150 250 34
155 250 37
160 250 40
165 250 43
170 250 46
175 250 49
180 250 52
185 250 55
190 250 58
195 250 61
200 250 64
205 250 67
210 250 70
215 250 73
220 250 76
225 250 79
230 250 82
235 250 85
240 250 88
245 250 91
250 250 94
255 250 97
4 250 100
9 250 103
14 250 106
19 250 109
24 250 112
29 250 115
34 250 118
39 250 121
44 250 124
49 250 127
54 250 130
59 250 133
64 250 136
69 250 139
74 250 142
79 250 145
84 250 148
89 250 151
100 255 7
105 255 10
110 255 13
115 255 16
120 255 19
125 255 22
130 255 25
135 255 28
140 255 31
145 255 34
150 255 37
155 255 40
160 255 43
165 255 46
170 255 49
175 255 52
180 255 55
185 255 58
190 255 61
195 255 64
200 255 67
205 255 70
210 255 73
215 255 76
220 255 79
225 255 82
230 255 85
235 255 88
240 255 91
245 255 94
250 255 97
255 255 100
4 255 103
9 255 106
14 255 109
19 255 112
24 255 115
29 255 118
34 255 121
39 255 124
44 255 127
49 255 130
54 255 133
59 255 136
64 255 139
69 255 142
74 255 145
79 255 148
84 255 151
89 255 154
100 4 10
105 4 13
110 4 16
115 4 19
120 4 22
125 4 25
130 4 28
135 4 31
140 4 34
145 4 37
150 4 40
155 4 43
160 4 46
165 4 49
170 4 52
175 4 55
180 4 58
185 4 61
190 4 64
195 4 67
200 4 70
205 4 73
210 4 76
215 4 79
220 4 82
225 4 85
230 4 88
235 4 91
240 4 94
245 4 97
250 4 100
255 4 103
4 4 106
9 4 109
14 4 112
19 4 115
24 4 118
29 4 121
34 4 124
39 4 127
44 4 130
49 4 133
54 4 136
59 4 139
64 4 142
69 4 145
74 4 148
79 4 151
84 4 154
89 4 157
100 9 13
105 9 16
110 9 19
115 9 22
120 9 25
125 9 28
130 9 31
135 9 34
140 9 37
145 9 40
150 9 43
155 9 46
160 9 49
165 9 52
170 9 55
175 9 58
180 9 61
185 9 64
190 9 67
195 9 70
200 9 73
205 9 76
210 9 79
215 9 82
220 9 85
225 9 88
230 9 91
235 9 94
240 9 97
245 9 100
250 9 103
255 9 106
4 9 109
9 9 112
14 9 115
19 9 118
24 9 121
29 9 124
34 9 127
39 9 130
44 9 133
49 9 136
54 9 139
59 9 142
64 9 145
69 9 148
74 9 151
79 9 154
84 9 157
89 9 160
100 14 16
105 14 19
110 14 22
115 14 25
120 14 28
125 14 31
130 14 34
135 14 37
140 14 40
145 14 43
150 14 46
155 14 49
160 14 52
165 14 55
170 14 58
175 14 61
180 14 64
185 14 67
190 14 70
195 14 73
200 14 76
205 14 79
210 14 82
215 14 85
220 14 88
225 14 91
230 14 94
235 14 97
240 14 100
245 14 103
250 14 106
255 14 109
4 14 112
9 14 115
14 14 118
19 14 121
24 14 124
29 14 127
34 14 130
39 14 133
44 14 136
49 14 139
54 14 142
59 14 145
64 14 148
69 14 151
74 14 154
79 14 157
84 14 160
89 14 163
100 19 19
105 19 22
110 19 25
115 19 28
120 19 31
125 19 34
130 19 37
135 19 40
140 19 43
145 19 46
150 19 49
155 19 52
160 19 55
165 19 58
170 19 61
175 19 64
180 19 67
185 19 70
190 19 73
195 19 76
200 19 79
205 19 82
210 19 85
215 19 88
220 19 91
225 19 94
230 19 97
235 19 100
240 19 103
245 19 106
250 19 109
255 19 112
4 19 115
9 19 118
14 19 121
19 19 124
24 19 127
29 19 130
34 19 133
39 19 136
44 19 139
49 19 142
54 19 145
59 19 148
64 19 151
69 19 154
74 19 157
79 19 160
84 19 163
89 19 166
100 24 22
105 24 25
110 24 28
115 24 31
120 24 34
125 24 37
130 24 40
135 24 43
140 24 46
145 24 49
150 24 52
155 24 55
160 24 58
165 24 61
170 24 64
175 24 67
180 24 70
185 24 73
190 24 76
195 24 79
200 24 82
205 24 85
210 24 88
215 24 91
220 24 94
225 24 97
230 24 100
235 24 103
240 24 106
245 24 109
250 24 112
255 24 115
4 24 118
9 24 121
14 24 124
19 24 127
24 24 130
29 24 133
34 24 136
39 24 139
44 24 142
49 24 145
54 24 148
59 24 151
64 24 154
69 24 157
74 24 160
79 24 163
84 24 166
89 24 169
100 29 25
105 29 28
110 29 31
115 29 34
120 29 37
125 29 40
130 29 43
135 29 46
140 29 49
145 29 52
150 29 55
155 29 58
160 29 61
165 29 64
170 29 67
175 29 70
180 29 73
185 29 76
190 29 79
195 29 82
200 29 85
205 29 88
210 29 91
215 29 94
220 29 97
225 29 100
230 29 103
235 29 106
240 29 109
245 29 112
250 29 115
255 29 118
4 29 121
9 29 124
14 29 127
19 29 130
24 29 133
29 29 136
34 29 139
39 29 142
44 29 145
49 29 148
54 29 151
59 29 154
64 29 157
69 29 160
74 29 163
79 29 166
84 29 169
89 29 172
100 34 28
105 34 31
110 34 34
115 34 37
120 34 40
125 34 43
130 34 46
135 34 49
140 34 52
145 34 55
150 34 58
155 34 61
160 34 64
165 34 67
170 34 70
175 34 73
180 34 76
185 34 79
190 34 82
195 34 85
200 34 88
205 34 91
210 34 94
215 34 97
220 34 100
225 34 103
230 34 106
235 34 109
240 34 112
245 34 115
250 34 118
255 34 121
4 34 124
9 34 127
14 34 130
19 34 133
24 34 136
29 34 139
34 34 142
39 34 145
44 34 148
49 34 151
54 34 154
59 34 157
64 34 160
69 34 163
74 34 166
79 34 169
84 34 172
89 34 175
100 39 31
105 39 34
110 39 37
115 39 40
120 39 43
125 39 46
130 39 49
135 39 52
140 39 55
145 39 58
150 39 61
155 39 64
160 39 67
165 39 70
170 39 73
175 39 76
180 39 79
185 39 82
190 39 85
195 39 88
200 39 91
205 39 94
210 39 97
215 39 100
220 39 103
225 39 106
230 39 109
235 39 112
240 39 115
245 39 118
250 39 121
255 39 124
4 39 127
9 39 130
14 39 133
19 39 136
24 39 139
29 39 142
34 39 145
39 39 148
44 39 151
49 39 154
54 39 157
59 39 160
64 39 163
69 39 166
74 39 169
79 39 172
84 39 175
89 39 178
100 44 34
105 44 37
110 44 40
115 44 43
120 44 46
125 44 49
130 44 52
135 44 55
140 44 58
145 44 61
150 44 64
155 44 67
160 44 70
165 44 73
170 44 76
175 44 79
180 44 82
185 44 85
190 44 88
195 44 91
200 44 94
205 44 97
210 44 100
215 44 103
220 44 106
225 44 109
230 44 112
235 44 115
240 44 118
245 44 121
250 44 124
255 44 127
4 44 130
9 44 133
14 44 136
19 44 139
24 44 142
29 44 145
34 44 148
39 44 151
44 44 154
49 44 157
54 44 160
59 44 163
64 44 166
69 44 169
74 44 172
79 44 175
84 44 178
89 44 181
100 49 37
105 49 40
110 49 43
115 49 46
120 49 49
125 49 52
130 49 55
135 49 58
140 49 61
145 49 64
150 49 67
155 49 70
160 49 73
165 49 76
170 49 79
175 49 82
180 49 85
185 49 88
190 49 91
195 49 94
200 49 97
205 49 100
210 49 103
215 49 106
220 49 109
225 49 112
230 49 115
235 49 118
240 49 121
245 49 124
250 49 127
255 49 130
4 49 133
9 49 136
14 49 139
19 49 142
24 49 145
29 49 148
34 49 151
39 49 154
44 49 157
49 49 160
54 49 163
59 49 166
64 49 169
69 49 172
74 49 175
79 49 178
84 49 181
89 49 184
100 54 40
105 54 43
110 54 46
115 54 49
120 54 52
125 54 55
130 54 58
135 54 61
140 54 64
145 54 67
150 54 70
155 54 73
160 54 76
165 54 79
170 54 82
175 54 85
180 54 88
185 54 91
190 54 94
195 54 97
200 54 100
205 54 103
210 54 106
215 54 109
220 54 112
225 54 115
230 54 118
235 54 121
240 54 124
245 54 127
250 54 130
255 54 133
4 54 136
9 54 139
14 54 142
19 54 145
24 54 148
29 54 151
34 54 154
39 54 157
44 54 160
49 54 163
54 54 166
59 54 169
64 54 172
69 54 175
74 54 178
79 54 181
84 54 184
89 54 187
100 59 43
105 59 46
110 59 49
115 59 52
120 59 55
125 59 58
130 59 61
135 59 64
140 59 67
145 59 70
150 59 73
155 59 76
160 59 79
165 59 82
170 59 85
175 59 88
180 59 91
185 59 94
190 59 97
195 59 100
200 59 103
205 59 106
210 59 109
215 59 112
220 59 115
225 59 118
230 59 121
235 59 124
240 59 127
245 59 130
250 59 133
255 59 136
4 59 139
9 59 142
14 59 145
19 59 148
24 59 151
29 59 154
34 59 157
39 59 160
44 59 163
49 59 166
54 59 169
59 59 172
64 59 175
69 59 178
74 59 181
79 59 184
84 59 187
89 59 190
100 64 46
105 64 49
110 64 52
115 64 55
120 64 58
125 64 61
130 64 64
135 64 67
140 64 70
145 64 73
150 64 76
155 64 79
160 64 82
165 64 85
170 64 88
175 64 91
180 64 94
185 64 97
190 64 100
195 64 103
200 64 106
205 64 109
210 64 112
215 64 115
220 64 118
225 64 121
230 64 124
235 64 127
240 64 130
245 64 133
250 64 136
255 64 139
4 64 142
9 64 145
14 64 148
19 64 151
24 64 154
29 64 157
34 64 160
39 64 163
44 64 166
49 64 169
54 64 172
59 64 175
64 64 178
69 64 181
74 64 184
79 64 187
84 64 190
89 64 193
100 69 49
105 69 52
110 69 55
115 69 58
120 69 61
125 69 64
130 69 67
135 69 70
140 69 73
145 69 76
150 69 79
155 69 82
160 69 85
165 69 88
170 69 91
175 69 94
180 69 97
185 69 100
190 69 103
195 69 106
200 69 109
205 69 112
210 69 115
215 69 118
220 69 121
225 69 124
230 69 127
235 69 130
240 69 133
245 69 136
250 69 139
255 69 142
4 69 145
9 69 148
14 69 151
19 69 154
24 69 157
29 69 160
34 69 163
39 69 166
44 69 169
49 69 172
54 69 175
59 69 178
64 69 181
69 69 184
74 69 187
79 69 190
84 69 193
89 69 196
100 74 52
105 74 55
110 74 58
115 74 61
120 74 64
125 74 67
130 74 70
135 74 73
140 74 76
145 74 79
150 74 82
155 74 85
160 74 88
165 74 91
170 74 94
175 74 97
180 74 100
185 74 103
190 74 106
195 74 109
200 74 112
205 74 115
210 74 118
215 74 121
220 74 124
225 74 127
230 74 130
235 74 133
240 74 136
245 74 139
250 74 142
255 74 145
4 74 148
9 74 151
14 74 154
19 74 157
24 74 160
29 74 163
34 74 166
39 74 169
44 74 172
49 74 175
54 74 178
59 74 181
64 74 184
69 74 187
74 74 190
79 74 193
84 74 196
89 74 199
100 79 55
105 79 58
110 79 61
115 79 64
120 79 67
125 79 70
130 79 73
135 79 76
140 79 79
145 79 82
150 79 85
155 79 88
160 79 91
165 79 94
170 79 97
175 79 100
180 79 103
185 79 106
190 79 109
195 79 112
200 79 115
205 79 118
210 79 121
215 79 124
220 79 127
225 79 130
230 79 133
235 79 136
240 79 139
245 79 142
250 79 145
255 79 148
4 79 151
9 79 154
14 79 157
19 79 160
24 79 163
29 79 166
34 79 169
39 79 172
44 79 175
49 79 178
54 79 181
59 79 184
64 79 187
69 79 190
74 79 193
79 79 196
84 79 199
89 79 202
100 84 58
105 84 61
110 84 64
115 84 67
120 84 70
125 84 73
130 84 76
135 84 79
140 84 82
145 84 85
150 84 88
155 84 91
160 84 94
165 84 97
170 84 100
175 84 103
180 84 106
185 84 109
190 84 112
195 84 115
200 84 118
205 84 121
210 84 124
215 84 127
220 84 130
225 84 133
230 84 136
235 84 139
240 84 142
245 84 145
250 84 148
255 84 151
4 84 154
9 84 157
14 84 160
19 84 163
24 84 166
29 84 169
34 84 172
39 84 175
44 84 178
49 84 181
54 84 184
59 84 187
64 84 190
69 84 193
74 84 196
79 84 199
84 84 202
89 84 205
100 89 61
105 89 64
110 89 67
115 89 70
120 89 73
125 89 76
130 89 79
135 89 82
140 89 85
145 89 88
150 89 91
155 89 94
160 89 97
165 89 100
170 89 103
175 89 106
180 89 109
185 89 112
190 89 115
195 89 118
200 89 121
205 89 124
210 89 127
215 89 130
220 89 133
225 89 136
230 89 139
235 89 142
240 89 145
245 89 148
250 89 151
255 89 154
4 89 157
9 89 160
14 89 163
19 89 166
24 89 169
29 89 172
34 89 175
39 89 178
44 89 181
49 89 184
54 89 187
59 89 190
64 89 193
69 89 196
74 89 199
79 89 202
84 89 205
89 89 208
100 94 64
105 94 67
110 94 70
115 94 73
120 94 76
125 94 79
130 94 82
135 94 85
140 94 88
145 94 91
150 94 94
155 94 97
160 94 100
165 94 103
170 94 106
175 94 109
180 94 112
185 94 115
190 94 118
195 94 121
200 94 124
205 94 127
210 94 130
215 94 133
220 94 136
225 94 139
230 94 142
235 94 145
240 94 148
245 94 151
250 94 154
255 94 157
4 94 160
9 94 163
14 94 166
19 94 169
24 94 172
29 94 175
34 94 178
39 94 181
44 94 184
49 94 187
54 94 190
59 94 193
64 94 196
69 94 199
74 94 202
79 94 205
84 94 208
89 94 211
100 99 67
105 99 70
110 99 73
115 99 76
120 99 79
125 99 82
130 99 85
135 99 88
140 99 91
145 99 94
150 99 97
155 99 100
160 99 103
165 99 106
170 99 109
175 99 112
180 99 115
185 99 118
190 99 121
195 99 124
200 99 127
205 99 130
210 99 133
215 99 136
220 99 139
225 99 142
230 99 145
235 99 148
240 99 151
245 99 154
250 99 157
255 99 160
4 99 163
9 99 166
14 99 169
19 99 172
24 99 175
29 99 178
34 99 181
39 99 184
44 99 187
49 99 190
54 99 193
59 99 196
64 99 199
69 99 202
74 99 205
79 99 208
84 99 211
89 99 214
100 104 70
105 104 73
110 104 76
115 104 79
120 104 82
125 104 85
130 104 88
135 104 91
140 104 94
145 104 97
150 104 100
155 104 103
160 104 106
165 104 109
170 104 112
175 104 115
180 104 118
185 104 121
190 104 124
195 104 127
200 104 130
205 104 133
210 104 136
215 104 139
220 104 142
225 104 145
230 104 148
235 104 151
240 104 154
245 104 157
250 104 160
255 104 163
4 104 166
9 104 169
14 104 172
19 104 175
24 104 178
29 104 181
34 104 184
39 104 187
44 104 190
49 104 193
54 104 196
59 104 199
64 104 202
69 104 205
74 104 208
79 104 211
84 104 214
89 104 217
100 109 73
105 109 76
110 109 79
115 109 82
120 109 85
125 109 88
130 109 91
135 109 94
140 109 97
145 109 100
150 109 103
155 109 106
160 109 109
165 109 112
170 109 115
175 109 118
180 109 121
185 109 124
190 109 127
195 109 130
200 109 133
205 109 136
210 109 139
215 109 142
220 109 145
225 109 148
230 109 151
235 109 154
240 109 157
245 109 160
250 109 163
255 109 166
4 109 169
9 109 172
14 109 175
19 109 178
24 109 181
29 109 184
34 109 187
39 109 190
44 109 193
49 109 196
54 109 199
59 109 202
64 109 205
69 109 208
74 109 211
79 109 214
84 109 217
89 109 220
100 114 76
105 114 79
110 114 82
115 114 85
120 114 88
125 114 91
130 114 94
135 114 97
140 114 100
145 114 103
150 114 106
155 114 109
160 114 112
165 114 115
170 114 118
175 114 121
180 114 124
185 114 127
190 114 130
195 114 133
200 114 136
205 114 139
210 114 142
215 114 145
220 114 148
225 114 151
230 114 154
235 114 157
240 114 160
245 114 163
250 114 166
255 114 169
4 114 172
9 114 175
14 114 178
19 114 181
24 114 184
29 114 187
34 114 190
39 114 193
44 114 196
49 114 199
54 114 202
59 114 205
64 114 208
69 114 211
74 114 214
79 114 217
84 114 220
89 114 223
100 119 79
105 119 82
110 119 85
115 119 88
120 119 91
125 119 94
130 119 97
135 119 100
140 119 103
145 119 106
150 119 109
155 119 112
160 119 115
165 119 118
170 119 121
175 119 124
180 119 127
185 119 130
190 119 133
195 119 136
200 119 139
205 119 142
210 119 145
215 119 148
220 119 151
225 119 154
230 119 157
235 119 160
240 119 163
245 119 166
250 119 169
255 119 172
4 119 175
9 119 178
14 119 181
19 119 184
24 119 187
29 119 190
34 119 193
39 119 196
44 119 199
49 119 202
54 119 205
59 119 208
64 119 211
69 119 214
74 119 217
79 119 220
84 119 223
89 119 226
100 124 82
105 124 85
110 124 88
115 124 91
120 124 94
125 124 97
130 124 100
135 124 103
140 124 106
145 124 109
150 124 112
155 124 115
160 124 118
165 124 121
170 124 124
175 124 127
180 124 130
185 124 133
190 124 136
195 124 139
200 124 142
205 124 145
210 124 148
215 124 151
220 124 154
225 124 157
230 124 160
235 124 163
240 124 166
245 124 169
250 124 172
255 124 175
4 124 178
9 124 181
14 124 184
19 124 187
24 124 190
29 124 193
34 124 196
39 124 199
44 124 202
49 124 205
54 124 208
59 124 211
64 124 214
69 124 217
74 124 220
79 124 223
84 124 226
89 124 229
100 129 85
105 129 88
110 129 91
115 129 94
120 129 97
125 129 100
130 129 103
135 129 106
140 129 109
145 129 112
150 129 115
155 129 118
160 129 121
165 129 124
170 129 127
175 129 130
180 129 133
185 129 136
190 129 139
195 129 142
200 129 145
205 129 148
210 129 151
215 129 154
220 129 157
225 129 160
230 129 163
235 129 166
240 129 169
245 129 172
250 129 175
255 129 178
4 129 181
9 129 184
14 129 187
19 129 190
24 129 193
29 129 196
34 129 199
39 129 202
44 129 205
49 129 208
54 129 211
59 129 214
64 129 217
69 129 220
74 129 223
79 129 226
84 129 229
89 129 232
100 134 88
105 134 91
110 134 94
115 134 97
120 134 100
125 134 103
130 134 106
135 134 109
140 134 112
145 134 115
150 134 118
155 134 121
160 134 124
165 134 127
170 134 130
175 134 133
180 134 136
185 134 139
190 134 142
195 134 145
200 134 148
205 134 151
210 134 154
215 134 157
220 134 160
225 134 163
230 134 166
235 134 169
240 134 172
245 134 175
250 134 178
255 134 181
4 134 184
9 134 187
14 134 190
19 134 193
24 134 196
29 134 199
34 134 202
39 134 205
44 134 208
49 134 211
54 134 214
59 134 217
64 134 220
69 134 223
74 134 226
79 134 229
84 134 232
89 134 235
100 139 91
105 139 94
110 139 97
115 139 100
120 139 103
125 139 106
130 139 109
135 139 112
140 139 115
145 139 118
150 139 121
155 139 124
160 139 127
165 139 130
170 139 133
175 139 136
180 139 139
185 139 142
190 139 145
195 139 148
200 139 151
205 139 154
210 139 157
215 139 160
220 139 163
225 139 166
230 139 169
235 139 172
240 139 175
245 139 178
250 139 181
255 139 184
4 139 187
9 139 190
14 139 193
19 139 196
24 139 199
29 139 202
34 139 205
39 139 208
44 139 211
49 139 214
54 139 217
59 139 220
64 139 223
69 139 226
74 139 229
79 139 232
84 139 235
89 139 238
